<svg width="2700" height="2701" viewBox="0 0 2700 2701" fill="none" xmlns="http://www.w3.org/2000/svg">
<path fill-rule="evenodd" clip-rule="evenodd" d="M679.845 23.6808C673.612 26.0658 671.14 28.2578 668.664 33.5978C667.349 36.4308 665.77 42.1248 665.153 46.2498C664.537 50.3748 657.719 98.5248 650.003 153.25C642.287 207.975 634.421 263.55 632.523 276.75C630.624 289.95 625.43 326.567 620.979 358.121C616.225 391.831 612.32 416.37 611.513 417.621C606.161 425.908 578.499 481.332 564.283 512.25C534.966 576.015 509.575 647.611 495.971 704.871C493.92 713.503 492.223 718.448 490.787 719.977C487.549 723.424 483.549 722.917 477.567 718.302C464.78 708.436 443.089 693.484 431.206 686.343C406.576 671.541 376.464 657.519 350.526 648.773C335.922 643.848 331.386 643.435 328.092 646.729C326.227 648.595 326.045 655.395 327.804 657.514C328.497 658.349 333.662 660.488 339.282 662.27C386.533 677.244 434.433 704.328 477.75 740.564C483.666 745.513 486 748.112 486 749.752C486 751.009 484.906 759.173 483.57 767.894C479.048 797.399 476.012 830.478 476.004 850.326C476 860.085 475.821 861.069 473.686 863.076C472.413 864.272 470.114 865.25 468.577 865.25C467.04 865.25 459.576 862.114 451.991 858.28C397.443 830.715 332.807 808.644 259.99 792.717C247.107 789.9 243.677 789.467 241.169 790.341C234.967 792.503 234.735 802.776 240.836 805.088C242.301 805.643 249.125 807.296 256 808.761C323.929 823.232 385.443 843.921 439.03 870.319C459.948 880.624 470.372 886.469 474.25 890.071C476.548 892.204 477.002 893.456 477.01 897.687C477.021 903.682 479.405 925.665 481.572 939.75C484.539 959.042 484.556 960.03 481.969 962.783C477.783 967.239 475.312 966.349 453.03 952.365C348.591 886.816 325.97 872.739 322.5 871.139C314.068 867.25 304.207 870.042 299.916 877.532L297.5 881.75L297.234 999.411L296.968 1117.07L293.632 1119.91C291.797 1121.47 288.782 1123.65 286.931 1124.75C278.879 1129.54 277.111 1130.72 270.154 1136.02C251.243 1150.41 233.437 1172.41 221.635 1195.96C193.936 1251.24 194.504 1312.25 223.219 1366.25C238.447 1394.89 257.276 1415.45 284.5 1433.18C288.9 1436.05 293.512 1439.34 294.75 1440.5L297 1442.6V1673.76V1904.93L304.75 1910.48C318.244 1920.14 337.567 1931.25 340.882 1931.25C343.091 1931.25 349.841 1935.1 365.708 1945.4C377.694 1953.18 388.962 1960.92 390.75 1962.6C394.688 1966.29 394.951 1969.76 391.662 1974.61C387.993 1980.01 375.984 2026.53 368.132 2065.75C349.594 2158.34 347.437 2239.67 361.476 2316.75C381.754 2428.09 437.084 2522.42 524.036 2593.91C549.499 2614.84 569.004 2625.92 586 2629.1C589.025 2629.66 593.525 2630.85 596 2631.74C599.223 2632.89 615.826 2634.48 654.5 2637.32C684.2 2639.51 720.2 2642.26 734.5 2643.42C748.8 2644.59 764.1 2645.73 768.5 2645.94C772.9 2646.16 822.625 2649.69 879 2653.79L981.5 2661.25L1113 2661.25L1244.5 2661.26L1359 2667.77C1435.74 2672.13 1475.48 2674.76 1479.5 2675.75C1483.63 2676.76 1490.94 2677.21 1503 2677.2C1518.09 2677.19 1521.26 2676.9 1526 2675.15C1529.03 2674.04 1537.58 2671.33 1545 2669.15C1590.63 2655.71 1622.58 2643.8 1658.04 2626.99C1692.21 2610.8 1735.91 2583.61 1752.57 2568.18C1759.52 2561.75 1761.93 2560.18 1768.62 2557.78C1772.96 2556.22 1786.89 2550.79 1799.59 2545.7C1905.63 2503.26 1998.39 2447.32 2077.64 2378.02C2102.92 2355.91 2143.43 2314.45 2160.15 2293.57C2161.99 2291.27 2168.72 2282.94 2175.09 2275.07C2186.24 2261.3 2204.15 2237.37 2207.76 2231.41C2208.72 2229.84 2212.76 2223.77 2216.75 2217.93C2220.74 2212.09 2224 2206.99 2224 2206.6C2224 2206.2 2224.84 2204.95 2225.87 2203.81C2227.76 2201.73 2241.84 2178.78 2248 2167.75C2266.06 2135.4 2272.73 2122.52 2283.65 2098.93C2303.27 2056.55 2321.42 2008.79 2335.04 1963.75C2337.87 1954.4 2341.45 1944.72 2342.99 1942.25C2345.65 1937.99 2347.99 1930.4 2361.49 1882.25C2394.49 1764.51 2397.15 1753.78 2427.95 1614.15C2446.6 1529.62 2450.41 1510.85 2455.92 1476.25C2465.02 1419.08 2481.83 1302.28 2484.92 1274.75C2487.98 1247.49 2494.07 1147.3 2496.11 1090.75C2497.39 1055.29 2496.71 974.129 2495.02 960.25C2490.92 926.604 2477.37 889.872 2464.69 878.057C2459.81 873.509 2450.55 867.402 2443.58 864.142C2433.97 859.644 2424.32 857.937 2412.5 858.647C2387.84 860.129 2376.86 866.941 2361.53 890.25C2337.7 926.486 2321.99 960.346 2308.86 1003.75C2296.46 1044.78 2287.05 1080.58 2281.01 1109.75C2274.2 1142.7 2271.12 1156.53 2264.86 1182.25C2248.97 1247.61 2248.13 1251.95 2243.52 1292.75C2241.65 1309.25 2238.54 1336.25 2236.6 1352.75C2234.66 1369.25 2231.71 1395.12 2230.04 1410.25C2225.18 1454.32 2215.11 1525.98 2210.03 1552.71C2208.45 1560.98 2204.85 1578.77 2202.02 1592.25C2186.42 1666.48 2179.39 1704.55 2173.02 1749.25C2167.39 1788.82 2159.49 1824.7 2147.18 1866.75C2144.44 1876.1 2139.03 1895.45 2135.16 1909.75C2124.67 1948.52 2121.14 1957.81 2102.41 1996.05C2090.32 2020.73 2072.13 2053.75 2063.73 2066.25C2051.97 2083.76 2031.51 2107.65 2019.79 2117.56C2008.59 2127.04 1993.56 2137.23 1985.59 2140.75C1979.2 2143.58 1969.48 2145.17 1958.33 2145.22L1951.16 2145.25L1947.58 2141.07L1944 2136.89L1943.97 2114.82C1943.96 2102.68 1943.53 2082.12 1943.02 2069.14C1942.13 2046.26 1942.45 2038.48 1953.46 1818.79L1964.81 1592.06L1967.5 1589.25C1968.97 1587.71 1972.95 1585.45 1976.34 1584.22C1986.31 1580.61 2000.9 1572.92 2012.59 1565.11C2057.39 1535.2 2085.9 1480.38 2085.98 1423.99C2086.06 1371.79 2060.37 1318.79 2020.43 1288.73C2011.65 1282.12 1998.39 1273.8 1991.7 1270.7C1983.11 1266.72 1982 1265.06 1982 1256.18C1982 1251.94 1984.02 1208.08 1986.5 1158.72C1992.14 1046.17 1992 1052.77 1988.93 1047.28C1986.33 1042.61 1981.68 1039.56 1975.69 1038.59C1972.19 1038.02 1966.81 1039.75 1914.5 1058.26C1863.65 1076.25 1828.22 1088.25 1825.97 1088.25C1822.63 1088.25 1819 1084.43 1819 1080.92C1819 1079.43 1821.02 1074.19 1823.48 1069.29C1833.66 1049.03 1846.68 1015.73 1852.5 995.077C1856.39 981.291 1857.02 980.807 1875.08 977.832C1901.78 973.433 1912.36 972.748 1953 972.79C1986.9 972.825 1993.47 973.093 2008 975.036C2027.3 977.616 2040.27 979.841 2059.25 983.825C2072.28 986.56 2073.15 986.625 2075.72 985.06C2080.69 982.049 2081.24 974.764 2076.73 971.809C2073.92 969.968 2052.21 965.088 2032.37 961.839C1977.98 952.929 1932.46 952.524 1877.27 960.461C1869.22 961.619 1869 961.595 1866.52 959.273C1863.39 956.326 1863.32 953.521 1865.98 937.022C1870.96 906.117 1871.43 899.418 1871.46 858.605C1871.5 821.973 1871.62 819.33 1873.35 817.419C1875.49 815.057 1890.61 811.196 1907 808.83C1935.89 804.659 1971.77 806.161 2002.87 812.844C2007.2 813.773 2011.91 814.238 2013.35 813.877C2018.98 812.464 2020.48 802.92 2015.58 799.707C2012.73 797.843 1999.64 794.984 1981 792.155C1969.48 790.407 1961.87 789.94 1944 789.888C1920.48 789.818 1908.49 791.007 1888.8 795.362C1883.69 796.493 1877.7 797.648 1875.5 797.929C1868.82 798.782 1867.72 796.692 1864.04 776.25C1856.6 734.818 1842.51 688.304 1824.2 644.75C1807.13 604.12 1774.84 543.887 1763.37 531.254C1760 527.541 1755.28 521.198 1752.88 517.16L1748.52 509.817L1747.79 487.784C1746.51 448.804 1743.82 396.914 1742.97 394.667C1742.51 393.467 1740.87 391.613 1739.32 390.548C1737.77 389.482 1710.63 376.411 1679 361.5C1647.38 346.589 1615.88 331.72 1609 328.458C1602.13 325.196 1585.48 317.338 1572 310.996C1558.53 304.654 1542.55 297.12 1536.5 294.254C1500.32 277.114 1493.11 273.931 1489.5 273.522C1486.53 273.185 1481.66 274.336 1470.5 278.01C1458.06 282.107 1448.58 286.448 1415 303.424C1365.98 328.204 1350.52 335.25 1345.16 335.25C1343.01 335.25 1332.14 333.44 1321.01 331.228C1240.01 315.124 1148.27 307.33 1072.08 310.077L1043.67 311.102L1034.7 306.599C1028.73 303.599 1023.32 299.868 1018.52 295.423C1014.55 291.753 1007.3 285.343 1002.4 281.179C991.449 271.862 777.788 91.9188 772.727 87.7498C770.724 86.0998 753.981 71.9248 735.519 56.2498C717.057 40.5748 699.925 26.6698 697.448 25.3508C692.024 22.4608 684.821 21.7778 679.845 23.6808ZM703.242 94.4998C701.427 96.4388 700.44 101.659 696.104 132.25C693.337 151.775 684.531 213.903 676.536 270.312C668.541 326.721 662 375.216 662 378.079C662 380.941 660.664 388.113 659.031 394.016C657.398 399.92 654.439 412.85 652.456 422.75C650.125 434.385 648.225 441.457 647.082 442.75C644.89 445.228 636.934 460.227 622.947 488.25C578.941 576.416 549.292 657.814 532.551 736.422C530.598 745.591 529.003 755.491 529.007 758.422C529.014 763.742 529.026 763.763 537.588 772.75C558.207 794.394 577.397 817.188 596.097 842.25C606.749 856.526 610 861.655 610 864.183C610 867.64 607.81 871.121 605.023 872.092C599.173 874.132 597.369 872.782 586.684 858.373C577.818 846.416 571.191 837.978 555.566 818.75C553.331 816 547.515 809.362 542.641 804C534.467 795.006 533.492 794.25 530.064 794.25C523.499 794.25 522.445 796.485 520.869 813.75C518.91 835.213 518.961 895.293 520.941 897.679C521.733 898.634 528.933 904.403 536.941 910.498C554.646 923.977 565.552 933.16 577.76 944.869C586.604 953.351 587.02 953.941 587.01 958C586.997 963.645 584.431 966.25 578.885 966.25C575.141 966.25 574.083 965.594 567.135 958.964C559.401 951.585 545.258 938.942 539.173 933.969C532.681 928.663 525 931.686 525 939.549C525 945.387 530.71 972.117 535.589 989.114C538.822 1000.38 540.764 1005.44 542.584 1007.34C544.652 1009.5 579.167 1031.54 623.25 1058.86C627.788 1061.67 645.45 1072.74 662.5 1083.45C679.55 1094.16 714.2 1115.89 739.5 1131.74C764.8 1147.59 788.119 1162.28 791.321 1164.4C794.522 1166.52 797.281 1168.25 797.452 1168.25C797.746 1168.25 846.915 1198.92 857.5 1205.7C877.818 1218.73 884.49 1222.94 886.894 1224.25C890.468 1226.2 927.858 1249.7 939.5 1257.32C944.45 1260.56 949.175 1263.54 950 1263.93C950.825 1264.33 959.15 1269.45 968.5 1275.3C984.955 1285.61 985.965 1286.08 1000 1290.07C1015.95 1294.59 1049.42 1304.25 1089.5 1315.9C1140.12 1330.6 1137.93 1330.09 1142.2 1328.27C1143.47 1327.73 1172.4 1317.57 1206.5 1305.68C1240.6 1293.79 1276.83 1281.14 1287 1277.56C1297.18 1273.98 1307.98 1270.23 1311 1269.22C1314.03 1268.22 1319.88 1266.19 1324 1264.71C1335.68 1260.53 1363.93 1250.61 1381 1244.7C1395.82 1239.57 1425.24 1229.28 1468.5 1214.08C1479.5 1210.21 1494.8 1204.89 1502.5 1202.25C1515.83 1197.67 1575.08 1176.95 1611.5 1164.13C1640.66 1153.87 1652.16 1149.85 1698.5 1133.71C1736.01 1120.65 1744.05 1117.52 1746.82 1114.9C1756.66 1105.58 1784.71 1054.91 1797.32 1023.69C1803.63 1008.08 1804.14 1004.67 1800.69 1001.42C1797.48 998.412 1793.68 998.674 1783.34 1002.62C1739.07 1019.51 1695.15 1044.07 1650.5 1076.9C1644.45 1081.35 1638.36 1085.26 1636.96 1085.58C1630.88 1087.02 1625.22 1079.48 1628.19 1073.91C1631.05 1068.55 1667.33 1043.14 1697 1025.72C1709.24 1018.54 1736.22 1004.57 1747 999.826C1764.82 991.993 1779.05 986.387 1794.4 981.151C1803.7 977.98 1812.16 974.536 1813.2 973.497C1815.44 971.25 1816.97 965.806 1820.97 945.75C1826.61 917.457 1828.99 892.656 1829 862.174C1829 844.049 1828.94 843.546 1826.69 841.424C1825.41 840.228 1823.1 839.25 1821.54 839.25C1817.04 839.25 1792.13 855.032 1774.5 869.063C1751.96 886.997 1717.93 920.611 1697.99 944.626C1688.33 956.273 1686.21 958.308 1683.17 958.879C1676.82 960.07 1671.79 955.089 1673.33 949.14C1674.67 943.983 1701.44 912.865 1722.88 891.535C1751.5 863.06 1781.93 840.171 1814 822.981C1827.46 815.766 1827.16 816.582 1824.04 795.75C1817.49 752.142 1804.82 708.174 1785.83 663.25C1772.88 632.598 1746.12 581.054 1730.55 556.751C1726.48 550.396 1723.64 540.461 1718.49 514.599C1716.21 503.148 1716 499.824 1716 475.344C1716 448.68 1715.99 448.592 1713.69 446.424C1709.77 442.744 1706.37 443.591 1697.5 450.452C1693.1 453.857 1683.88 460.957 1677 466.23C1670.13 471.502 1661.35 478.263 1657.5 481.254C1650.11 486.992 1613.82 514.904 1598.35 526.748C1585.6 536.509 1562.14 554.546 1551.95 562.425C1537.09 573.905 1531.79 575.476 1523.01 571C1515.31 567.078 1515.05 566.211 1507.51 519.25C1504.99 503.575 1500.02 472.975 1496.46 451.25C1492.91 429.525 1486.93 392.965 1483.18 370.006C1477.08 332.657 1476.11 327.999 1474.01 325.756C1472.63 324.287 1470.54 323.25 1468.96 323.25C1467.49 323.25 1459.58 326.892 1451.39 331.342C1443.2 335.793 1433.13 341.269 1429 343.511C1424.88 345.752 1410.03 353.883 1396 361.579C1381.98 369.276 1367.55 377.165 1363.94 379.111L1357.37 382.65L1341.44 378.995C1294.04 368.125 1241.29 360.255 1185 355.658C1162.22 353.798 1071.09 352.672 1047.5 353.96L1032.5 354.779L1016 343.263C1006.93 336.929 998.375 330.949 997 329.975C995.625 329.001 988.875 324.327 982 319.589C975.125 314.85 967.023 308.673 963.995 305.862C960.968 303.05 953.123 296.25 946.562 290.75C940.002 285.25 928.303 275.35 920.566 268.75C912.828 262.15 903.123 253.968 898.999 250.569C894.874 247.169 887.864 241.319 883.421 237.569C878.977 233.818 867.052 223.791 856.921 215.286C846.789 206.781 835.339 197.106 831.475 193.786C827.611 190.466 820.861 184.736 816.475 181.052C795.006 163.022 771.647 143.362 764.036 136.917C759.381 132.975 751.056 125.945 745.536 121.294C740.016 116.643 730.014 108.205 723.309 102.544C710.037 91.3368 707.249 90.2198 703.242 94.4998ZM767.975 266.815C766.664 270.264 766.668 367.246 767.98 370.696L768.959 373.273L809.23 373.011C848.652 372.756 849.505 372.708 849.749 370.75C849.906 369.49 844.747 361.723 835.799 349.75C827.989 339.3 810.443 315.788 796.808 297.5C783.065 279.068 771.334 264.25 770.484 264.25C769.641 264.25 768.512 265.404 767.975 266.815ZM1516.17 329.564C1513.12 332.82 1513.31 335.905 1518.54 367.955C1521.03 383.242 1524.87 406.775 1527.06 420.25C1541.9 511.371 1542.13 512.681 1544.27 515C1547.86 518.884 1551.26 517.973 1560.85 510.559C1572.46 501.577 1586.68 490.651 1600.93 479.75C1607.4 474.8 1617.6 466.956 1623.59 462.319C1629.59 457.682 1639.24 450.257 1645.04 445.819C1689.26 411.977 1687 413.915 1687 409.833C1687 404.996 1683.41 402.345 1665.5 393.953C1656.7 389.83 1642.85 383.26 1634.71 379.353C1626.58 375.447 1619.76 372.25 1619.57 372.25C1619.38 372.25 1610.82 368.2 1600.56 363.25C1590.29 358.3 1581.74 354.25 1581.56 354.25C1581.38 354.25 1574.16 350.875 1565.53 346.75C1556.9 342.625 1549.69 339.25 1549.51 339.25C1549.32 339.25 1543.62 336.55 1536.84 333.25C1523.28 326.657 1519.53 325.989 1516.17 329.564ZM853.646 536.309C809.211 541.47 763.4 563.569 732.5 594.75C699.501 628.049 679.229 671.636 674.033 720.461C669.199 765.885 683.247 817.563 711.191 857.158C740.521 898.718 785.845 927.777 837.5 938.142C886.764 948.027 937.675 939.126 981.5 912.967C996.905 903.772 1008.4 894.908 1020 883.276C1031.91 871.33 1036.42 865.847 1045.63 852.058C1075.41 807.49 1086.58 752.122 1076.37 699.75C1072.76 681.278 1068.12 667.714 1058.91 648.75C1044.51 619.092 1024.67 594.829 999.727 576.39C985.131 565.6 974.982 559.833 954.629 550.766C941.748 545.027 920.346 539.331 902.216 536.816C890.311 535.164 865.714 534.907 853.646 536.309ZM857.5 578.873C818.871 584.732 791.872 597.915 764.631 624.22C740.384 647.634 725.424 675.104 718.869 708.25C715.927 723.125 715.665 751.449 718.332 766.25C721.851 785.772 728.183 802.797 738.21 819.689C745.597 832.132 752.669 841.032 764.681 853C772.681 860.971 774.426 862.25 777.308 862.25C781.306 862.25 785 858.822 785 855.113C785 853.734 783.651 850.114 782.002 847.07C777.153 838.118 773.271 827.913 770.36 816.466C768.016 807.25 767.625 803.651 767.567 790.75C767.493 774.303 768.949 765.164 773.933 750.784C788.093 709.927 821.685 681.589 866 673.114C875.25 671.345 897.817 671.642 907 673.653C955.332 684.238 987.749 715.28 1000.05 762.75C1003.17 774.798 1003.79 795.273 1001.45 809.261L999.625 820.222L1001.99 822.736C1005.24 826.2 1009.82 826.104 1013.22 822.5C1018.87 816.503 1028.3 794.857 1032.48 778.277C1036.35 762.938 1037.31 752.581 1036.7 732.753C1035.91 706.95 1031.59 689.134 1020.93 667.84C1012.63 651.257 1005.72 641.982 989.5 625.642C973.38 609.406 964.918 603.14 947.076 594.229C925.231 583.317 907.622 579.258 880 578.766C869.275 578.575 859.15 578.623 857.5 578.873ZM1417 590.814C1415.63 591.051 1410.45 591.749 1405.5 592.366C1386.85 594.691 1362.42 602.058 1345.33 610.514C1339.32 613.49 1332.32 617.351 1323.16 622.75C1309.12 631.022 1286.27 651.89 1275.23 666.52C1234.34 720.711 1222.35 788.498 1242.65 850.75C1249.34 871.262 1258.08 888.283 1272.68 909.25C1287.8 930.947 1313.18 952.273 1340.59 966.294C1385.86 989.456 1435.64 994.815 1483.62 981.692C1512.72 973.731 1539.54 959.715 1562 940.72C1604.77 904.551 1630.97 847.392 1630.96 790.25C1630.96 736.639 1610.14 686.158 1572.58 648.71C1542.54 618.759 1505.67 600.098 1461.99 592.736C1452.95 591.213 1422.29 589.902 1417 590.814ZM1411.5 634.666C1406 635.4 1399.25 636.52 1396.5 637.156C1374 642.361 1348.39 655.47 1331 670.676C1321.81 678.713 1307.75 694.425 1301.84 703.25C1295.23 713.131 1286.77 730.544 1283.14 741.75C1277.41 759.456 1276.54 765.764 1276.56 789.75C1276.57 810.289 1276.76 812.538 1279.36 823.611C1286.62 854.477 1300.47 878.92 1323.79 902C1329.94 908.096 1334.05 908.954 1337.83 904.936C1340.84 901.727 1340.55 898.298 1336.61 890.475C1332.28 881.861 1328.58 871.001 1326.33 860.25C1324.21 850.152 1324 829.118 1325.91 819.25C1331.24 791.783 1346.27 765.847 1365.64 750.67C1392.06 729.983 1425.23 720.703 1455.16 725.633C1505.7 733.959 1541.96 769.062 1551.64 819.04C1553.78 830.084 1553.76 849.118 1551.59 859.065C1550.72 863.089 1550 867.623 1550 869.141C1550 872.781 1553.76 876.25 1557.71 876.25C1562.17 876.25 1566.28 871.052 1573.11 856.752C1584.54 832.838 1588.59 812.7 1587.7 784.25C1587.09 764.959 1585.39 754.97 1580.01 739.238C1573.24 719.382 1562.91 702.105 1548.06 685.75C1528.56 664.277 1508.4 650.639 1483.18 641.861C1462.01 634.491 1433.94 631.674 1411.5 634.666ZM2403.44 893.663C2393.93 897.805 2368.98 938.969 2353.67 975.785C2342.36 1002.98 2323.54 1069.57 2312.98 1119.75C2306.04 1152.76 2302.77 1167.07 2290.07 1220.03C2282.24 1252.66 2280.77 1261.27 2276.5 1299.25C2274.55 1316.57 2271.4 1344.02 2269.5 1360.25C2267.6 1376.47 2264.89 1400.32 2263.47 1413.25C2259.44 1450.03 2248.63 1527.77 2244.42 1550.25C2243.03 1557.67 2237.44 1585.35 2232.01 1611.75C2216.28 1688.14 2213.36 1704.11 2206.5 1751.09C2199.88 1796.37 2194.28 1822.29 2180.96 1869.25C2176.67 1884.37 2170.62 1906.2 2167.51 1917.75C2156.59 1958.31 2150 1975.27 2128.42 2018.47C2116.48 2042.35 2114.71 2045.68 2104.63 2063.07C2100.71 2069.84 2096.43 2077.26 2095.12 2079.57C2086.47 2094.75 2059.45 2128.17 2046.91 2139.18C2027.22 2156.47 2006.87 2169.05 1989.3 2174.78C1980.62 2177.62 1960.99 2179.67 1952 2178.68C1946.88 2178.11 1946.32 2178.26 1943.87 2180.91C1941.53 2183.44 1941.17 2184.83 1940.56 2193.75C1939.67 2206.92 1936.5 2232.14 1933.42 2250.54C1918.98 2336.95 1888.04 2414.16 1842.82 2476.65C1839.3 2481.51 1839.12 2486.07 1842.31 2489.08C1845.67 2492.23 1848.67 2491.82 1862.29 2486.35C1896.12 2472.76 1936.68 2452.71 1963 2436.57C1966.58 2434.37 1969.95 2432.39 1970.5 2432.16C1972.66 2431.27 2002.08 2411.59 2012 2404.4C2069.65 2362.65 2121.32 2311.57 2163.85 2254.27C2173.94 2240.69 2200 2202.73 2200 2201.63C2200 2201.41 2203.32 2195.72 2207.37 2188.99C2248.88 2120.05 2280.03 2044.05 2312.85 1931.63C2346.84 1815.23 2365.39 1743.78 2385.44 1652.13C2390.66 1628.27 2396.31 1602.67 2398.01 1595.25C2412.52 1531.67 2420.03 1492.17 2428.51 1434.75C2443.73 1331.69 2448.15 1300.6 2451.02 1276.25C2453.89 1251.83 2460.17 1149.16 2462.09 1095.25C2463.59 1052.93 2462.75 969.672 2460.68 956.25C2456.79 930.947 2448.38 909.369 2439.22 901.142C2431.13 893.88 2426.82 892.244 2415.89 892.289C2410.35 892.312 2405.25 892.875 2403.44 893.663ZM335.174 927.564L333 929.879V1013.39V1096.9L335.314 1099.08C338.151 1101.74 338.91 1101.75 351.938 1099.22C361.17 1097.42 363.537 1097.32 372.438 1098.29C402.803 1101.59 429.12 1110.85 441.051 1122.42C452.266 1133.29 459 1151.37 459 1170.61C459 1179.86 456.219 1197.52 452.912 1209.25C449.529 1221.26 449.437 1223.02 452.058 1225.81C453.318 1227.15 454.776 1228.25 455.297 1228.25C455.819 1228.25 459.076 1230.27 462.534 1232.74C479.551 1244.88 488.018 1262.15 487.985 1284.66C487.963 1299.64 484.571 1311.45 476.822 1323.53C473.532 1328.65 473.43 1330.83 475.929 1342.53C481.605 1369.09 477.698 1399.49 465.825 1421.15C459.108 1433.4 446.971 1446.97 436.756 1453.66C423.298 1462.47 382.074 1465.74 353.771 1460.25C340.42 1457.66 337.864 1457.7 335.174 1460.56L333 1462.88V1671.89V1880.9L335.25 1882.95C336.488 1884.07 353.25 1895.22 372.5 1907.71C391.75 1920.2 413.47 1934.32 420.767 1939.09C445.746 1955.4 478.501 1976.83 501.317 1991.79C513.866 2000.02 524.869 2007.2 525.767 2007.75C528.009 2009.12 584.929 2046.13 634 2078.12C647.475 2086.9 668.625 2100.68 681 2108.74C693.375 2116.8 713.288 2129.77 725.251 2137.57C737.214 2145.37 757.689 2158.71 770.751 2167.22C783.813 2175.72 802.15 2187.68 811.5 2193.79C820.85 2199.9 832.325 2207.38 837 2210.42C858.6 2224.45 869.876 2231.83 880.664 2239C887.08 2243.26 893.06 2247.2 893.954 2247.75C900.878 2252.01 925.757 2268.11 941.321 2278.41C951.076 2284.87 954.403 2285.58 957.826 2281.94L960 2279.62V1796.63V1313.64L956.75 1310.57C954.962 1308.88 946.075 1302.87 937 1297.21C927.925 1291.55 915.869 1283.96 910.209 1280.34C904.549 1276.71 898.682 1273.02 897.172 1272.14C894.538 1270.59 789.026 1204.58 709.5 1154.72C588.677 1078.98 587.503 1078.25 585.922 1078.25C584.809 1078.25 573.696 1071.21 537.767 1047.76C531.864 1043.9 521.514 1037.17 514.767 1032.8C508.02 1028.43 496.041 1020.64 488.147 1015.49C480.254 1010.34 472.796 1005.74 471.576 1005.28C470.355 1004.81 465.339 1001.81 460.428 998.593C455.518 995.379 451.017 992.525 450.428 992.25C449.838 991.975 435.764 983.2 419.152 972.75C402.54 962.3 388.172 953.297 387.224 952.744C378.643 947.738 364.932 938.873 363.963 937.705C363.299 936.905 362.296 936.25 361.736 936.25C361.175 936.25 356.794 933.775 352 930.75C342.235 924.588 338.614 923.903 335.174 927.564ZM1062.25 985.912C1059.78 986.909 1061.13 990.87 1066.28 997.75C1070.76 1003.73 1078.17 1013.91 1093.6 1035.25C1095.39 1037.72 1100.48 1044.63 1104.93 1050.59L1113 1061.44V1076.74C1113 1094.1 1111.78 1099.63 1104.87 1113.75C1091.45 1141.13 1065.59 1163.05 1036.28 1171.89C1024.46 1175.45 998.492 1176.4 984.515 1173.78C969.627 1170.99 955.288 1164.8 943.114 1155.92C914.267 1134.86 897 1102.85 897 1070.42V1060.51L893.25 1059.9C891.188 1059.57 888.038 1059.01 886.25 1058.65L883 1058L883.006 1065.37C883.033 1099.36 899.888 1137.22 924.28 1158.07C951.986 1181.75 989.254 1193.02 1022.83 1187.86C1040.53 1185.15 1062.79 1176.44 1076.13 1167.02C1090.92 1156.57 1095.67 1151.8 1107.78 1135.25C1112.03 1129.43 1112.93 1128.72 1116.36 1128.43C1121.15 1128.04 1122.92 1129.55 1127.11 1137.62C1146.42 1174.81 1184.11 1198.78 1228.06 1201.84C1245.18 1203.03 1268.73 1198.14 1286.6 1189.68C1316.52 1175.52 1338.62 1150.07 1348.88 1118C1352.24 1107.49 1354.99 1092.64 1355 1085L1355 1080.25L1349.75 1080.26C1346.86 1080.27 1344.02 1080.61 1343.43 1081.01C1342.85 1081.42 1341.82 1086.61 1341.14 1092.55C1338.43 1116.28 1330.05 1134.95 1314.01 1152.92C1298.92 1169.84 1279.01 1181.46 1256.69 1186.39C1248.87 1188.12 1245.04 1188.36 1231 1187.97C1212.47 1187.45 1204.9 1185.9 1190.13 1179.57C1165.31 1168.93 1141.07 1142.85 1132.22 1117.25C1127.87 1104.68 1126.62 1096.52 1127.41 1085.99L1128.09 1076.97L1143.42 1057.86C1151.85 1047.35 1159.76 1037.85 1161 1036.75C1162.24 1035.65 1164.32 1033.09 1165.61 1031.06C1166.9 1029.02 1174.71 1018.93 1182.98 1008.61C1191.24 998.301 1198 989.099 1198 988.164C1198 987.229 1197.29 986.191 1196.42 985.857C1194.53 985.132 1064.05 985.185 1062.25 985.912ZM1924.5 1091.7C1914.6 1095.2 1879.5 1107.53 1846.5 1119.11C1813.5 1130.69 1777.28 1143.53 1766 1147.64C1743.21 1155.96 1696.62 1172.17 1664.5 1182.97C1652.95 1186.85 1634.38 1193.22 1623.24 1197.12C1612.1 1201.02 1593.88 1207.39 1582.74 1211.29C1571.61 1215.19 1552.38 1221.91 1540 1226.22C1509.63 1236.81 1481.38 1246.7 1458.5 1254.75C1448.05 1258.43 1433.2 1263.6 1425.5 1266.24C1417.8 1268.89 1404.98 1273.38 1397 1276.23C1389.03 1279.08 1377.55 1283.12 1371.5 1285.22C1365.45 1287.32 1353.98 1291.29 1346 1294.06C1338.03 1296.82 1323.18 1302.01 1313 1305.59C1264.89 1322.51 1203.12 1344.1 1179.5 1352.25C1167.61 1356.36 1160.57 1359.34 1158.75 1361.05L1156 1363.62V1850.26V2336.9L1158.31 2339.08C1159.59 2340.27 1161.81 2341.25 1163.25 2341.25C1165.38 2341.25 1189.51 2331.41 1228 2314.83C1231.03 2313.52 1249.93 2305.48 1270 2296.96C1290.08 2288.44 1330.58 2271.24 1360 2258.75C1410.7 2237.22 1479.44 2208.06 1492.5 2202.53C1495.8 2201.14 1499.85 2199.41 1501.5 2198.71C1513.25 2193.66 1536.93 2183.59 1562.5 2172.75C1579 2165.76 1599.7 2156.97 1608.5 2153.23C1617.3 2149.49 1635.08 2141.93 1648 2136.44C1660.93 2130.94 1689.73 2118.7 1712 2109.24C1734.28 2099.78 1764.65 2086.86 1779.5 2080.53C1794.35 2074.2 1810.1 2067.54 1814.5 2065.73C1818.9 2063.92 1827.68 2060.2 1834 2057.46C1845.76 2052.36 1879.74 2037.93 1895 2031.54C1899.68 2029.59 1904.45 2027.03 1905.62 2025.87C1907.69 2023.79 1907.95 2019.46 1917.91 1818.75C1923.5 1706 1928.06 1610.79 1928.04 1607.17C1927.99 1598.23 1926.34 1596.74 1915.5 1595.82C1903.97 1594.85 1895.87 1592.75 1886.28 1588.26C1874.71 1582.84 1867.67 1575.59 1861.36 1562.62C1856.82 1553.29 1856.66 1552.63 1855.99 1541.02C1854.76 1519.78 1857.66 1500.94 1864.14 1488.04C1867.23 1481.89 1866.65 1479.69 1860.08 1472.67C1853.21 1465.33 1847.5 1454.5 1845.88 1445.75C1843.77 1434.35 1846.38 1411.53 1851.05 1400.64C1852.03 1398.35 1854 1394.63 1855.42 1392.38C1859.11 1386.53 1858.81 1382.97 1854.15 1377.68C1849.81 1372.75 1847.33 1366.9 1843.92 1353.59L1841.58 1344.43L1843.36 1335.09C1846.69 1317.59 1853.83 1300.52 1862.55 1289.19C1874.59 1273.54 1895.14 1263.3 1921.71 1259.72C1935.94 1257.8 1938.71 1256.68 1943.2 1251.08L1946.67 1246.75L1950.49 1168.48L1954.32 1090.22L1951.99 1087.73C1948.49 1084.01 1944.71 1084.56 1924.5 1091.7ZM357.776 1128.26C336.391 1132.11 311.956 1142.07 293.842 1154.34C281.549 1162.66 259.446 1184.71 251.729 1196.34C244.636 1207.03 237.109 1222.05 233.129 1233.45C223.751 1260.31 222.576 1294.74 230.044 1323.86C244.95 1381.99 297.53 1429.84 355.712 1438.22C359.996 1438.84 366.875 1440.09 371 1441.01C380.942 1443.22 401.503 1443.15 408.5 1440.89C411.25 1440 414.625 1439.26 416 1439.25C419.034 1439.23 428.3 1435.02 432.676 1431.68C434.431 1430.34 436.523 1429.25 437.326 1429.25C439.342 1429.25 448.81 1418.72 452.762 1412.09C458.988 1401.64 460.3 1396.19 459.709 1383.25C458.977 1367.23 457.785 1363.27 451.673 1356.58L446.617 1351.05L439.559 1351.61C435.676 1351.92 430.879 1352.46 428.897 1352.8C423.312 1353.78 416.827 1350.41 414.543 1345.34C412.419 1340.64 412.818 1333.7 415.441 1329.7C416.532 1328.03 421.625 1324.95 429.816 1321C439.689 1316.23 443.872 1313.57 448.691 1308.96C456.366 1301.63 458 1297.39 458 1284.81C458 1273.23 457.094 1270.25 451.639 1263.86C442.709 1253.41 437.74 1251.5 416.388 1250.32C406.196 1249.76 402.545 1249.17 399.993 1247.67C395.494 1245.04 392.957 1241.34 392.304 1236.48C391.445 1230.07 394.628 1224.64 402.728 1218.7C417.503 1207.85 425.518 1200.55 428.342 1195.36C431.105 1190.29 431.139 1190.01 430.822 1175.47L430.5 1160.72L425.113 1151.25C418.479 1139.59 412.911 1132.87 407.011 1129.4C402.657 1126.84 401.909 1126.74 385.5 1126.54C372.359 1126.38 366.066 1126.77 357.776 1128.26ZM1907 1285.13C1889.18 1290.85 1878.02 1299.66 1871.72 1312.96C1868.82 1319.08 1868.47 1320.83 1868.16 1330.71C1867.74 1343.92 1868.66 1347.43 1874.42 1354.49C1879.77 1361.06 1887.03 1365.12 1899.95 1368.74C1911.27 1371.92 1912.27 1372.41 1914.94 1376.16C1920.14 1383.46 1917.81 1394.79 1910.25 1398.94C1908.19 1400.08 1901.14 1402.7 1894.59 1404.78C1878.52 1409.88 1877.28 1411.07 1875.87 1422.72C1873.67 1441.03 1875.24 1446.44 1885.02 1454.17C1889.02 1457.33 1891.24 1458.22 1898.45 1459.54C1910.18 1461.7 1913.96 1463.7 1916.81 1469.25C1919.51 1474.51 1919.19 1479.36 1915.76 1485.46C1913.43 1489.61 1906.61 1493.59 1899.77 1494.8C1890.31 1496.48 1885.48 1508.81 1886.15 1529.53C1886.6 1543.18 1888.08 1546.62 1897.76 1556.45C1906.52 1565.35 1911.33 1567.42 1924.82 1568.04C1930.89 1568.32 1936.03 1568.09 1937.32 1567.48C1941.19 1565.65 1945.36 1564.39 1951.5 1563.19C1968.24 1559.91 1988.67 1550.64 2003.2 1539.7C2014.3 1531.36 2032.37 1512.63 2038.85 1502.75C2049.23 1486.94 2056.33 1469.18 2059.39 1451.32C2061.51 1438.92 2061.55 1412.65 2059.45 1400.63C2054.88 1374.34 2042.42 1350.29 2022.66 1329.59C2007.09 1313.28 1991.48 1302.61 1972.5 1295.29C1968.1 1293.59 1962.25 1291.27 1959.5 1290.13C1953.06 1287.46 1942 1285.25 1935 1285.24C1931.98 1285.24 1928.21 1284.56 1926.64 1283.74C1922.52 1281.6 1916.71 1282.01 1907 1285.13ZM997.174 1330.56L995 1332.88V1819.88V2306.88L997.75 2309.45C999.263 2310.87 1001.4 2312.26 1002.5 2312.55C1005.05 2313.23 1050.74 2327.1 1084.23 2337.36C1098.38 2341.7 1111.24 2345.25 1112.81 2345.25C1114.49 2345.25 1116.54 2344.3 1117.83 2342.94L1120 2340.62V1852.09V1363.56L1117.98 1361.73C1116.84 1360.7 1104.98 1356.75 1090.73 1352.67C1076.85 1348.69 1052.1 1341.57 1035.72 1336.84C1019.35 1332.12 1004.46 1328.25 1002.65 1328.25C1000.49 1328.25 998.595 1329.05 997.174 1330.56ZM422.29 1989.5C417.724 1994.49 403.264 2054.55 396.105 2098.25C388.735 2143.24 386.644 2168.33 386.603 2212.25C386.563 2255.17 388.326 2277.14 394.631 2312.25C409.657 2395.95 446.688 2468.99 504.5 2528.95C525.1 2550.32 558.929 2580.25 562.477 2580.25C563.256 2580.25 566.867 2582.5 570.5 2585.25C578.044 2590.96 581.422 2591.56 584.942 2587.81C586.808 2585.82 587.121 2584.67 586.631 2581.56C583.618 2562.49 583.516 2528.05 586.426 2512.26C593.567 2473.52 611.258 2437.89 636.5 2411.41C674.303 2371.76 734.04 2348.71 787.415 2353.18C843.239 2357.85 893.793 2385.06 925.933 2427.75C932.416 2436.36 933.973 2438.79 940.997 2451.25C957.086 2479.79 966.11 2517.55 964.659 2550.25C963.681 2572.28 957.617 2600.43 951.93 2609.34C947.976 2615.53 948.018 2619.93 952.065 2623.81L955.131 2626.75L1073.21 2627.04L1191.28 2627.33L1193.64 2625.12C1196.99 2621.97 1196.67 2617.94 1192.63 2612.38C1187.24 2604.98 1186.1 2602 1183.86 2589.52C1182.26 2580.66 1181.73 2573.55 1181.7 2560.75C1181.66 2542.15 1183.04 2531.53 1187.93 2512.75C1197.4 2476.42 1219.67 2441.03 1246.88 2419.08C1274.79 2396.58 1306.35 2382.84 1342 2377.67C1358.43 2375.29 1384.03 2376.15 1400.5 2379.64C1450.08 2390.15 1490.86 2416.72 1516.53 2455.25C1549.14 2504.18 1557.67 2559.82 1540.95 2614.36C1537.39 2625.95 1537.31 2628.25 1540.31 2631.08C1543.91 2634.45 1548.05 2633.83 1569.65 2626.64C1605.35 2614.76 1650.31 2595.11 1674.33 2580.89C1678.64 2578.34 1682.34 2576.25 1682.56 2576.25C1683.52 2576.25 1712.42 2556.94 1721.5 2550.24C1754 2526.24 1787.96 2492.85 1812.49 2460.75C1825.88 2443.22 1842.15 2416.93 1853.02 2395.25C1893.15 2315.14 1911.23 2222.37 1909.85 2103.58L1909.5 2073.41L1907.08 2070.83C1903.48 2067.01 1900.03 2067.51 1884.4 2074.14C1876.75 2077.38 1857 2085.76 1840.5 2092.75C1824 2099.74 1807.58 2106.72 1804 2108.25C1800.43 2109.79 1773.43 2121.26 1744 2133.75C1714.58 2146.24 1672.5 2164.12 1650.5 2173.48C1628.5 2182.84 1609.83 2190.73 1609 2191.02C1608.18 2191.31 1605.7 2192.34 1603.5 2193.3C1598.26 2195.6 1578.47 2204.04 1541.5 2219.74C1525 2226.75 1507 2234.41 1501.5 2236.77C1496 2239.13 1478 2246.78 1461.5 2253.77C1420.55 2271.12 1357.12 2298.06 1324.5 2311.97C1309.65 2318.3 1293.9 2324.96 1289.5 2326.77C1285.1 2328.58 1276.33 2332.3 1270 2335.04C1258.98 2339.82 1251.51 2343 1192 2368.23C1177.43 2374.41 1160.33 2381.7 1154 2384.41C1147.68 2387.13 1140.92 2389.38 1139 2389.42C1135.81 2389.47 1123.09 2385.76 1047 2362.6C1016.84 2353.42 1004.51 2349.68 986.5 2344.23C971.041 2339.55 965.617 2337.13 958.654 2331.81C956.085 2329.85 953.789 2328.25 953.551 2328.25C953.062 2328.25 935.996 2317.32 914.5 2303.25C906.52 2298.02 895.381 2290.74 889.746 2287.06C858.407 2266.6 844.429 2257.48 840.957 2255.25C829.175 2247.67 808.78 2234.4 788 2220.79C775.075 2212.33 755.725 2199.72 745 2192.76C724.174 2179.25 713.95 2172.57 681.447 2151.25C670.128 2143.82 660.145 2137.3 659.262 2136.75C656.755 2135.19 629.882 2117.7 577.28 2083.4C562.859 2073.99 546.434 2063.29 540.78 2059.61C535.126 2055.93 523.3 2048.22 514.5 2042.48C505.7 2036.73 493.21 2028.6 486.745 2024.39C480.28 2020.19 464.849 2010.11 452.454 2002C428.548 1986.35 426.098 1985.34 422.29 1989.5ZM760.875 2383.3C730.945 2385.45 702.393 2396.38 677.504 2415.21C669.483 2421.28 653.801 2436.94 646.178 2446.49C642.78 2450.75 640 2454.45 640 2454.72C640 2454.99 638.366 2457.76 636.37 2460.89C628.037 2473.91 620.151 2494.55 616.36 2513.25C614.508 2522.38 614.098 2544.22 615.47 2560.55L616.209 2569.34L623.398 2580.04C627.353 2585.92 632.016 2591.69 633.762 2592.87C635.507 2594.04 642.102 2596.92 648.417 2599.26C659.751 2603.46 660.03 2603.51 670.199 2603.04C679.349 2602.63 681.338 2602.18 688 2599.06C697.08 2594.81 705.826 2587.75 709.925 2581.37C715 2573.46 724.43 2570.88 731.747 2575.4C736.583 2578.39 738.297 2582.96 737.472 2590.66C736.696 2597.91 738.549 2602.46 744.74 2608.48C750.883 2614.47 759.003 2617.66 769.161 2618.08C776.909 2618.4 778.47 2618.15 783.983 2615.68C790.695 2612.66 800.674 2602.9 808.072 2592.1C816.64 2579.59 825.315 2576.07 834.915 2581.2C836.209 2581.9 838.995 2586.35 841.712 2592.06C849.413 2608.27 861.329 2618.12 875.238 2619.79C880.715 2620.45 881.396 2620.26 890.238 2615.75C905.452 2607.98 911.736 2602.25 922.586 2586.25C932.373 2571.82 932.902 2570.56 934.122 2558.66C936.094 2539.44 933.976 2516.77 928.404 2497.49C912.876 2443.74 864.169 2398.11 809.778 2386.36C802.075 2384.69 774.282 2381.78 772 2382.4C771.725 2382.48 766.719 2382.88 760.875 2383.3ZM1342 2407.66C1324.33 2410.41 1310.05 2415.09 1295 2423.06C1247.02 2448.45 1214.53 2497.24 1212.27 2547.29C1211.74 2558.95 1211.8 2559.41 1216.58 2580.25C1220.38 2596.85 1222.01 2599.56 1234.36 2609.89C1245.31 2619.03 1247.89 2620.25 1256.39 2620.25C1272.22 2620.25 1282.84 2613.72 1286.44 2601.78C1291.91 2583.65 1312.1 2583 1318.46 2600.75C1322.27 2611.39 1325.06 2616.06 1330.27 2620.49C1341.85 2630.32 1349.37 2633.25 1363.08 2633.25H1370.74L1378.24 2625.39C1383.78 2619.6 1386.31 2616.04 1387.87 2611.86C1390.87 2603.85 1392.56 2601.64 1397.08 2599.83C1402.31 2597.74 1405.51 2597.84 1410.44 2600.22C1413.92 2601.91 1415.06 2603.34 1418.3 2610.09C1421.26 2616.26 1423.76 2619.62 1429.79 2625.48C1440.93 2636.3 1450.12 2640.25 1464.16 2640.25C1478.94 2640.25 1489.58 2635.82 1499.88 2625.37C1510.45 2614.65 1514.93 2603.85 1518.08 2581.4C1520 2567.81 1518.73 2538.14 1515.69 2525.24C1508.69 2495.54 1495.13 2472.29 1471.31 2449.17C1449.37 2427.87 1426.41 2415.46 1397.4 2409.22C1384.76 2406.5 1354.87 2405.66 1342 2407.66Z" fill="black"/>
</svg>
