<svg width="530" height="53" viewBox="0 0 530 53" fill="none" xmlns="http://www.w3.org/2000/svg">
<g clip-path="url(#clip0_590_313)">
<path d="M0.27002 40.6597V1.20573H5.61392V40.6597H0.27002ZM3.90842 40.6597V35.7706H25.0566V40.6597H3.90842ZM42.069 41.2282C39.3781 41.2282 36.9525 40.6218 34.7922 39.409C32.6319 38.1583 30.9264 36.4717 29.6757 34.3493C28.425 32.2269 27.7996 29.8203 27.7996 27.1294C27.7996 24.4764 28.406 22.0887 29.6188 19.9663C30.8695 17.8439 32.5371 16.1763 34.6216 14.9635C36.744 13.7128 39.1128 13.0874 41.7279 13.0874C44.2293 13.0874 46.4275 13.6559 48.3225 14.7929C50.2554 15.9299 51.7524 17.5028 52.8136 19.5115C53.9127 21.5202 54.4623 23.7942 54.4623 26.3335C54.4623 26.7125 54.4433 27.1294 54.4054 27.5842C54.3675 28.0011 54.2917 28.4938 54.178 29.0623H31.3812V24.7985H51.4492L49.5732 26.4472C49.5732 24.628 49.251 23.093 48.6067 21.8423C47.9624 20.5537 47.0528 19.5683 45.8779 18.8861C44.703 18.166 43.2818 17.806 41.6142 17.806C39.8708 17.806 38.3358 18.185 37.0093 18.943C35.6828 19.701 34.6595 20.7622 33.9394 22.1266C33.2193 23.491 32.8593 25.1017 32.8593 26.9588C32.8593 28.8538 33.2383 30.5214 33.9963 31.9616C34.7543 33.3639 35.8344 34.463 37.2367 35.2589C38.639 36.0169 40.2498 36.3959 42.069 36.3959C43.585 36.3959 44.9683 36.1306 46.219 35.6C47.5076 35.0694 48.6067 34.2735 49.5163 33.2123L52.8136 36.5665C51.525 38.0825 49.9332 39.2384 48.0382 40.0343C46.1811 40.8302 44.1914 41.2282 42.069 41.2282ZM68.6255 41.2282C67.1095 41.2282 65.6693 41.0387 64.3049 40.6597C62.9784 40.2428 61.7466 39.6743 60.6096 38.9542C59.4726 38.1962 58.4872 37.3055 57.6534 36.2822L60.9507 32.9849C61.9361 34.1977 63.0731 35.1073 64.3617 35.7137C65.6503 36.2822 67.0905 36.5665 68.6823 36.5665C70.2741 36.5665 71.5059 36.3012 72.3776 35.7706C73.2493 35.2021 73.6851 34.4251 73.6851 33.4397C73.6851 32.4543 73.3251 31.6963 72.605 31.1657C71.9228 30.5972 71.0321 30.1424 69.933 29.8013C68.8339 29.4223 67.659 29.0623 66.4083 28.7212C65.1955 28.3422 64.0396 27.8684 62.9405 27.2999C61.8414 26.7314 60.9318 25.9545 60.2117 24.9691C59.5295 23.9837 59.1884 22.6761 59.1884 21.0464C59.1884 19.4167 59.5863 18.0144 60.3822 16.8395C61.1781 15.6267 62.2772 14.6982 63.6795 14.0539C65.1197 13.4096 66.8442 13.0874 68.8529 13.0874C70.9753 13.0874 72.8513 13.4664 74.481 14.2244C76.1486 14.9445 77.513 16.0436 78.5742 17.5217L75.2769 20.819C74.5189 19.8336 73.5714 19.0756 72.4344 18.545C71.3353 18.0144 70.0846 17.7491 68.6823 17.7491C67.2042 17.7491 66.0672 18.0144 65.2713 18.545C64.5133 19.0377 64.1343 19.7389 64.1343 20.6485C64.1343 21.5581 64.4754 22.2592 65.1576 22.7519C65.8398 23.2446 66.7305 23.6615 67.8296 24.0026C68.9666 24.3437 70.1415 24.7038 71.3543 25.0828C72.5671 25.4239 73.723 25.8976 74.8221 26.504C75.9212 27.1104 76.8119 27.9253 77.4941 28.9486C78.2142 29.9719 78.5742 31.3173 78.5742 32.9849C78.5742 35.5242 77.6646 37.5329 75.8454 39.011C74.0641 40.4891 71.6575 41.2282 68.6255 41.2282ZM96.8093 41.2282C94.1184 41.2282 91.6928 40.6218 89.5325 39.409C87.3722 38.1583 85.6667 36.4717 84.416 34.3493C83.1653 32.2269 82.5399 29.8203 82.5399 27.1294C82.5399 24.4764 83.1463 22.0887 84.3591 19.9663C85.6098 17.8439 87.2774 16.1763 89.3619 14.9635C91.4843 13.7128 93.8531 13.0874 96.4682 13.0874C98.9696 13.0874 101.168 13.6559 103.063 14.7929C104.996 15.9299 106.493 17.5028 107.554 19.5115C108.653 21.5202 109.203 23.7942 109.203 26.3335C109.203 26.7125 109.184 27.1294 109.146 27.5842C109.108 28.0011 109.032 28.4938 108.918 29.0623H86.1215V24.7985H106.19L104.314 26.4472C104.314 24.628 103.991 23.093 103.347 21.8423C102.703 20.5537 101.793 19.5683 100.618 18.8861C99.4433 18.166 98.0221 17.806 96.3545 17.806C94.6111 17.806 93.0761 18.185 91.7496 18.943C90.4231 19.701 89.3998 20.7622 88.6797 22.1266C87.9596 23.491 87.5996 25.1017 87.5996 26.9588C87.5996 28.8538 87.9786 30.5214 88.7366 31.9616C89.4946 33.3639 90.5747 34.463 91.977 35.2589C93.3793 36.0169 94.9901 36.3959 96.8093 36.3959C98.3253 36.3959 99.7086 36.1306 100.959 35.6C102.248 35.0694 103.347 34.2735 104.257 33.2123L107.554 36.5665C106.265 38.0825 104.674 39.2384 102.779 40.0343C100.922 40.8302 98.9317 41.2282 96.8093 41.2282ZM128.994 41.2282C126.947 41.2282 125.09 40.8113 123.423 39.9775C121.793 39.1058 120.485 37.9119 119.5 36.3959C118.515 34.8799 117.965 33.1555 117.851 31.2226V23.093C117.965 21.1222 118.515 19.3978 119.5 17.9197C120.523 16.4037 121.85 15.2288 123.48 14.395C125.147 13.5233 126.985 13.0874 128.994 13.0874C131.458 13.0874 133.675 13.7128 135.645 14.9635C137.654 16.2142 139.227 17.9007 140.364 20.0231C141.501 22.1455 142.07 24.5332 142.07 27.1862C142.07 29.8392 141.501 32.2269 140.364 34.3493C139.227 36.4717 137.654 38.1583 135.645 39.409C133.675 40.6218 131.458 41.2282 128.994 41.2282ZM114.782 51.9728V13.6559H119.898V20.7622L118.932 27.2999L119.898 33.8945V51.9728H114.782ZM128.141 36.3959C129.847 36.3959 131.344 35.998 132.632 35.2021C133.921 34.4062 134.944 33.326 135.702 31.9616C136.46 30.5593 136.839 28.9486 136.839 27.1294C136.839 25.3481 136.46 23.7563 135.702 22.354C134.944 20.9517 133.921 19.8715 132.632 19.1135C131.344 18.3176 129.866 17.9197 128.198 17.9197C126.493 17.9197 124.996 18.3176 123.707 19.1135C122.418 19.8715 121.414 20.9517 120.694 22.354C119.974 23.7563 119.614 25.367 119.614 27.1862C119.614 28.9675 119.955 30.5593 120.637 31.9616C121.357 33.326 122.362 34.4062 123.65 35.2021C124.977 35.998 126.474 36.3959 128.141 36.3959ZM147.87 40.6597V13.6559H152.987V40.6597H147.87ZM152.987 25.2533L151.054 24.4006C151.054 20.9517 151.85 18.2039 153.441 16.1573C155.033 14.1107 157.326 13.0874 160.32 13.0874C161.685 13.0874 162.916 13.3338 164.015 13.8265C165.115 14.2813 166.138 15.0582 167.085 16.1573L163.731 19.6252C163.163 19.0188 162.537 18.5829 161.855 18.3176C161.173 18.0523 160.377 17.9197 159.467 17.9197C157.572 17.9197 156.019 18.5261 154.806 19.7389C153.593 20.9517 152.987 22.7898 152.987 25.2533ZM182.306 41.2282C179.616 41.2282 177.19 40.6218 175.03 39.409C172.869 38.1583 171.164 36.4717 169.913 34.3493C168.662 32.2269 168.037 29.8203 168.037 27.1294C168.037 24.4764 168.644 22.0887 169.856 19.9663C171.107 17.8439 172.775 16.1763 174.859 14.9635C176.982 13.7128 179.35 13.0874 181.965 13.0874C184.467 13.0874 186.665 13.6559 188.56 14.7929C190.493 15.9299 191.99 17.5028 193.051 19.5115C194.15 21.5202 194.7 23.7942 194.7 26.3335C194.7 26.7125 194.681 27.1294 194.643 27.5842C194.605 28.0011 194.529 28.4938 194.416 29.0623H171.619V24.7985H191.687L189.811 26.4472C189.811 24.628 189.489 23.093 188.844 21.8423C188.2 20.5537 187.29 19.5683 186.115 18.8861C184.941 18.166 183.519 17.806 181.852 17.806C180.108 17.806 178.573 18.185 177.247 18.943C175.92 19.701 174.897 20.7622 174.177 22.1266C173.457 23.491 173.097 25.1017 173.097 26.9588C173.097 28.8538 173.476 30.5214 174.234 31.9616C174.992 33.3639 176.072 34.463 177.474 35.2589C178.877 36.0169 180.487 36.3959 182.306 36.3959C183.822 36.3959 185.206 36.1306 186.457 35.6C187.745 35.0694 188.844 34.2735 189.754 33.2123L193.051 36.5665C191.763 38.0825 190.171 39.2384 188.276 40.0343C186.419 40.8302 184.429 41.2282 182.306 41.2282ZM200.335 40.6597V13.6559H205.452V40.6597H200.335ZM202.894 8.25513C201.946 8.25513 201.169 7.95193 200.563 7.34553C199.956 6.70123 199.653 5.90533 199.653 4.95783C199.653 4.04823 199.956 3.29023 200.563 2.68383C201.169 2.03953 201.946 1.71738 202.894 1.71738C203.841 1.71738 204.618 2.03953 205.225 2.68383C205.831 3.29023 206.134 4.04823 206.134 4.95783C206.134 5.90533 205.831 6.70123 205.225 7.34553C204.618 7.95193 203.841 8.25513 202.894 8.25513ZM221.576 41.2282C220.06 41.2282 218.62 41.0387 217.256 40.6597C215.929 40.2428 214.698 39.6743 213.561 38.9542C212.424 38.1962 211.438 37.3055 210.604 36.2822L213.902 32.9849C214.887 34.1977 216.024 35.1073 217.313 35.7137C218.601 36.2822 220.042 36.5665 221.633 36.5665C223.225 36.5665 224.457 36.3012 225.329 35.7706C226.2 35.2021 226.636 34.4251 226.636 33.4397C226.636 32.4543 226.276 31.6963 225.556 31.1657C224.874 30.5972 223.983 30.1424 222.884 29.8013C221.785 29.4223 220.61 29.0623 219.359 28.7212C218.147 28.3422 216.991 27.8684 215.891 27.2999C214.792 26.7314 213.883 25.9545 213.163 24.9691C212.48 23.9837 212.139 22.6761 212.139 21.0464C212.139 19.4167 212.537 18.0144 213.333 16.8395C214.129 15.6267 215.228 14.6982 216.631 14.0539C218.071 13.4096 219.795 13.0874 221.804 13.0874C223.926 13.0874 225.802 13.4664 227.432 14.2244C229.1 14.9445 230.464 16.0436 231.525 17.5217L228.228 20.819C227.47 19.8336 226.522 19.0756 225.385 18.545C224.286 18.0144 223.036 17.7491 221.633 17.7491C220.155 17.7491 219.018 18.0144 218.222 18.545C217.464 19.0377 217.085 19.7389 217.085 20.6485C217.085 21.5581 217.426 22.2592 218.109 22.7519C218.791 23.2446 219.681 23.6615 220.781 24.0026C221.918 24.3437 223.092 24.7038 224.305 25.0828C225.518 25.4239 226.674 25.8976 227.773 26.504C228.872 27.1104 229.763 27.9253 230.445 28.9486C231.165 29.9719 231.525 31.3173 231.525 32.9849C231.525 35.5242 230.616 37.5329 228.796 39.011C227.015 40.4891 224.608 41.2282 221.576 41.2282ZM262.893 40.6597L247.089 1.20573H252.887L265.906 34.5767H263.803L276.935 1.20573H282.677L266.759 40.6597H262.893ZM295.118 41.2282C292.427 41.2282 290.002 40.6218 287.841 39.409C285.681 38.1583 283.976 36.4717 282.725 34.3493C281.474 32.2269 280.849 29.8203 280.849 27.1294C280.849 24.4764 281.455 22.0887 282.668 19.9663C283.919 17.8439 285.586 16.1763 287.671 14.9635C289.793 13.7128 292.162 13.0874 294.777 13.0874C297.278 13.0874 299.477 13.6559 301.372 14.7929C303.305 15.9299 304.802 17.5028 305.863 19.5115C306.962 21.5202 307.511 23.7942 307.511 26.3335C307.511 26.7125 307.493 27.1294 307.455 27.5842C307.417 28.0011 307.341 28.4938 307.227 29.0623H284.43V24.7985H304.498L302.622 26.4472C302.622 24.628 302.3 23.093 301.656 21.8423C301.012 20.5537 300.102 19.5683 298.927 18.8861C297.752 18.166 296.331 17.806 294.663 17.806C292.92 17.806 291.385 18.185 290.059 18.943C288.732 19.701 287.709 20.7622 286.989 22.1266C286.269 23.491 285.908 25.1017 285.908 26.9588C285.908 28.8538 286.287 30.5214 287.045 31.9616C287.803 33.3639 288.884 34.463 290.286 35.2589C291.688 36.0169 293.299 36.3959 295.118 36.3959C296.634 36.3959 298.018 36.1306 299.268 35.6C300.557 35.0694 301.656 34.2735 302.566 33.2123L305.863 36.5665C304.574 38.0825 302.982 39.2384 301.087 40.0343C299.23 40.8302 297.241 41.2282 295.118 41.2282ZM313.09 40.6597V13.6559H318.207V40.6597H313.09ZM318.207 25.2533L316.274 24.4006C316.274 20.9517 317.07 18.2039 318.662 16.1573C320.253 14.1107 322.546 13.0874 325.54 13.0874C326.905 13.0874 328.137 13.3338 329.236 13.8265C330.335 14.2813 331.358 15.0582 332.306 16.1573L328.951 19.6252C328.383 19.0188 327.758 18.5829 327.075 18.3176C326.393 18.0523 325.597 17.9197 324.688 17.9197C322.793 17.9197 321.239 18.5261 320.026 19.7389C318.813 20.9517 318.207 22.7898 318.207 25.2533ZM343.307 40.6597L332.619 13.6559H337.963L345.694 34.6904H343.989L351.663 13.6559H354.62L362.294 34.6904H360.589L368.321 13.6559H373.664L363.033 40.6597H360.02L352.232 20.2505H354.108L346.263 40.6597H343.307ZM388.919 41.2282C386.455 41.2282 384.219 40.6218 382.211 39.409C380.202 38.1583 378.61 36.4717 377.435 34.3493C376.298 32.2269 375.73 29.8392 375.73 27.1862C375.73 24.5332 376.298 22.1455 377.435 20.0231C378.61 17.9007 380.183 16.2142 382.154 14.9635C384.162 13.7128 386.418 13.0874 388.919 13.0874C390.966 13.0874 392.785 13.5233 394.377 14.395C396.006 15.2288 397.314 16.4037 398.299 17.9197C399.285 19.3978 399.834 21.1222 399.948 23.093V31.2226C399.834 33.1555 399.285 34.8799 398.299 36.3959C397.352 37.9119 396.063 39.1058 394.433 39.9775C392.842 40.8113 391.003 41.2282 388.919 41.2282ZM389.772 36.3959C392.311 36.3959 394.358 35.5432 395.911 33.8377C397.465 32.0943 398.242 29.8771 398.242 27.1862C398.242 25.3291 397.882 23.7184 397.162 22.354C396.48 20.9517 395.495 19.8715 394.206 19.1135C392.917 18.3176 391.42 17.9197 389.715 17.9197C388.009 17.9197 386.493 18.3176 385.167 19.1135C383.878 19.9094 382.855 21.0085 382.097 22.4108C381.377 23.7752 381.017 25.3481 381.017 27.1294C381.017 28.9486 381.377 30.5593 382.097 31.9616C382.855 33.326 383.897 34.4062 385.224 35.2021C386.55 35.998 388.066 36.3959 389.772 36.3959ZM397.901 40.6597V33.3829L398.868 26.7883L397.901 20.2505V13.6559H403.075V40.6597H397.901ZM410.524 40.6597V0.0687256H415.64V40.6597H410.524ZM427.276 40.6597V2.34273H432.393V40.6597H427.276ZM420.625 18.3176V13.6559H439.044V18.3176H420.625ZM454.915 41.2282C452.716 41.2282 450.727 40.7355 448.945 39.7501C447.202 38.7268 445.838 37.3245 444.852 35.5432C443.867 33.7619 443.374 31.6963 443.374 29.3465V13.6559H448.491V29.1191C448.491 30.5972 448.737 31.8858 449.23 32.9849C449.76 34.0461 450.518 34.861 451.504 35.4295C452.489 35.998 453.645 36.2822 454.971 36.2822C456.98 36.2822 458.553 35.6569 459.69 34.4062C460.827 33.1176 461.396 31.3552 461.396 29.1191V13.6559H466.512V29.3465C466.512 31.6963 466.019 33.7619 465.034 35.5432C464.049 37.3245 462.684 38.7268 460.941 39.7501C459.235 40.7355 457.227 41.2282 454.915 41.2282ZM492.471 40.6597V24.9122C492.471 22.8656 491.827 21.1791 490.538 19.8526C489.25 18.5261 487.582 17.8628 485.535 17.8628C484.171 17.8628 482.958 18.166 481.897 18.7724C480.836 19.3788 480.002 20.2126 479.396 21.2738C478.789 22.335 478.486 23.5478 478.486 24.9122L476.383 23.7184C476.383 21.6718 476.837 19.8526 477.747 18.2608C478.657 16.669 479.926 15.4183 481.556 14.5087C483.186 13.5612 485.024 13.0874 487.07 13.0874C489.117 13.0874 490.917 13.5991 492.471 14.6224C494.063 15.6457 495.314 16.9911 496.223 18.6587C497.133 20.2884 497.588 22.0318 497.588 23.8889V40.6597H492.471ZM473.37 40.6597V13.6559H478.486V40.6597H473.37ZM515.714 52.5413C512.948 52.5413 510.484 52.0297 508.324 51.0064C506.201 49.9831 504.496 48.5429 503.207 46.6858L506.505 43.3316C507.604 44.7339 508.911 45.7951 510.427 46.5152C511.943 47.2732 513.744 47.6522 515.828 47.6522C518.595 47.6522 520.774 46.9132 522.366 45.4351C523.996 43.9949 524.81 42.043 524.81 39.5795V32.8712L525.72 26.7883L524.81 20.7622V13.6559H529.927V39.5795C529.927 42.1567 529.32 44.4118 528.108 46.3447C526.933 48.2776 525.265 49.7936 523.105 50.8927C520.982 51.9918 518.519 52.5413 515.714 52.5413ZM515.714 40.2049C513.251 40.2049 511.034 39.6174 509.063 38.4425C507.13 37.2676 505.595 35.6569 504.458 33.6103C503.321 31.5258 502.753 29.1949 502.753 26.6177C502.753 24.0405 503.321 21.7476 504.458 19.7389C505.595 17.6923 507.13 16.0815 509.063 14.9066C511.034 13.6938 513.251 13.0874 515.714 13.0874C517.837 13.0874 519.713 13.5043 521.343 14.3381C522.972 15.1719 524.261 16.3468 525.208 17.8628C526.194 19.3409 526.724 21.0843 526.8 23.093V30.2561C526.686 32.2269 526.137 33.9703 525.151 35.4863C524.204 36.9644 522.915 38.1204 521.286 38.9542C519.656 39.788 517.799 40.2049 515.714 40.2049ZM516.738 35.3726C518.405 35.3726 519.864 35.0126 521.115 34.2925C522.404 33.5724 523.389 32.568 524.071 31.2794C524.754 29.9529 525.095 28.418 525.095 26.6746C525.095 24.9312 524.735 23.4152 524.014 22.1266C523.332 20.8001 522.366 19.7768 521.115 19.0567C519.864 18.2987 518.386 17.9197 516.681 17.9197C514.975 17.9197 513.478 18.2987 512.19 19.0567C510.901 19.7768 509.878 20.8001 509.12 22.1266C508.4 23.4152 508.04 24.9122 508.04 26.6177C508.04 28.3232 508.4 29.8392 509.12 31.1657C509.878 32.4922 510.901 33.5345 512.19 34.2925C513.516 35.0126 515.032 35.3726 516.738 35.3726Z" fill="black"/>
</g>
<defs>
<clipPath id="clip0_590_313">
<rect width="530" height="53" fill="white"/>
</clipPath>
</defs>
</svg>
