<svg width="17" height="17" viewBox="0 0 17 17" fill="none" xmlns="http://www.w3.org/2000/svg">
<g clip-path="url(#clip0_570_508)">
<path d="M14.4436 1.55854L14.5926 1.40954C14.7048 1.29745 14.8379 1.20856 14.9844 1.14792C15.1309 1.08729 15.2879 1.05611 15.4465 1.05615C15.605 1.0562 15.762 1.08747 15.9085 1.14819C16.055 1.20891 16.188 1.29789 16.3001 1.41004C16.4122 1.52219 16.5011 1.65531 16.5617 1.80182C16.6224 1.94832 16.6535 2.10533 16.6535 2.26389C16.6535 2.42245 16.6222 2.57944 16.5615 2.72591C16.5007 2.87238 16.4118 3.00545 16.2996 3.11754L16.1506 3.26554C16.4055 3.5514 16.5414 3.92393 16.5304 4.30677C16.5194 4.6896 16.3625 5.05374 16.0916 5.32454L5.79962 15.6175C5.73528 15.6815 5.65473 15.7268 5.56662 15.7485L1.56662 16.7485C1.48291 16.7694 1.39523 16.7682 1.31211 16.7451C1.22899 16.7221 1.15325 16.6779 1.09225 16.6169C1.03125 16.5559 0.987071 16.4802 0.964006 16.397C0.94094 16.3139 0.939773 16.2262 0.960617 16.1425L1.96062 12.1425C1.9825 12.0548 2.02777 11.9746 2.09162 11.9105L11.7336 2.26854C11.6372 2.20067 11.5199 2.16906 11.4024 2.17931C11.2849 2.18956 11.1748 2.241 11.0916 2.32454L7.79962 5.61754C7.75313 5.66403 7.69794 5.7009 7.6372 5.72606C7.57646 5.75122 7.51136 5.76417 7.44562 5.76417C7.37987 5.76417 7.31477 5.75122 7.25403 5.72606C7.19329 5.7009 7.1381 5.66403 7.09162 5.61754C7.04513 5.57105 7.00825 5.51586 6.98309 5.45512C6.95793 5.39438 6.94498 5.32928 6.94498 5.26354C6.94498 5.19779 6.95793 5.13269 6.98309 5.07195C7.00825 5.01121 7.04513 4.95603 7.09162 4.90954L10.3856 1.61754C10.6566 1.34655 11.021 1.18956 11.4041 1.17877C11.7872 1.16799 12.1598 1.30423 12.4456 1.55954C12.7204 1.31398 13.0759 1.17815 13.4444 1.17796C13.8129 1.17778 14.1686 1.31325 14.4436 1.55854Z" fill="black"/>
</g>
<defs>
<clipPath id="clip0_570_508">
<rect width="16" height="16" fill="white" transform="translate(0.945557 0.763428)"/>
</clipPath>
</defs>
</svg>
