<svg width="17" height="17" viewBox="0 0 17 17" fill="none" xmlns="http://www.w3.org/2000/svg">
<g clip-path="url(#clip0_570_514)">
<path d="M1.1123 10.6633C1.24491 10.6633 1.37209 10.716 1.46586 10.8098C1.55963 10.9035 1.6123 11.0307 1.6123 11.1633V13.6633C1.6123 13.9285 1.71766 14.1829 1.9052 14.3704C2.09273 14.558 2.34709 14.6633 2.6123 14.6633H14.6123C14.8775 14.6633 15.1319 14.558 15.3194 14.3704C15.5069 14.1829 15.6123 13.9285 15.6123 13.6633V11.1633C15.6123 11.0307 15.665 10.9035 15.7588 10.8098C15.8525 10.716 15.9797 10.6633 16.1123 10.6633C16.2449 10.6633 16.3721 10.716 16.4659 10.8098C16.5596 10.9035 16.6123 11.0307 16.6123 11.1633V13.6633C16.6123 14.1938 16.4016 14.7025 16.0265 15.0775C15.6514 15.4526 15.1427 15.6633 14.6123 15.6633H2.6123C2.08187 15.6633 1.57316 15.4526 1.19809 15.0775C0.823018 14.7025 0.612305 14.1938 0.612305 13.6633V11.1633C0.612305 11.0307 0.664983 10.9035 0.758751 10.8098C0.852519 10.716 0.979696 10.6633 1.1123 10.6633Z" fill="black"/>
<path d="M8.25833 1.90934C8.30477 1.86278 8.35995 1.82584 8.42069 1.80063C8.48144 1.77543 8.54656 1.76245 8.61233 1.76245C8.67809 1.76245 8.74321 1.77543 8.80396 1.80063C8.8647 1.82584 8.91988 1.86278 8.96633 1.90934L11.9663 4.90934C12.0602 5.00323 12.113 5.13057 12.113 5.26335C12.113 5.39612 12.0602 5.52346 11.9663 5.61735C11.8724 5.71123 11.7451 5.76398 11.6123 5.76398C11.4796 5.76398 11.3522 5.71123 11.2583 5.61735L9.11233 3.47035V12.2633C9.11233 12.396 9.05965 12.5231 8.96588 12.6169C8.87211 12.7107 8.74493 12.7633 8.61233 12.7633C8.47972 12.7633 8.35254 12.7107 8.25877 12.6169C8.165 12.5231 8.11233 12.396 8.11233 12.2633V3.47035L5.96633 5.61735C5.91984 5.66383 5.86465 5.70071 5.80391 5.72587C5.74317 5.75103 5.67807 5.76398 5.61233 5.76398C5.54658 5.76398 5.48148 5.75103 5.42074 5.72587C5.36 5.70071 5.30481 5.66383 5.25833 5.61735C5.21184 5.57086 5.17496 5.51567 5.1498 5.45493C5.12464 5.39419 5.11169 5.32909 5.11169 5.26335C5.11169 5.1976 5.12464 5.1325 5.1498 5.07176C5.17496 5.01102 5.21184 4.95583 5.25833 4.90934L8.25833 1.90934Z" fill="black"/>
</g>
<defs>
<clipPath id="clip0_570_514">
<rect width="16" height="16" fill="white" transform="translate(0.612305 0.763428)"/>
</clipPath>
</defs>
</svg>
