<svg width="26" height="26" viewBox="0 0 26 26" fill="none" xmlns="http://www.w3.org/2000/svg">
<path d="M19.2355 3.5498C20.8387 3.5498 22.1388 4.84987 22.1388 6.45312V19.2256C22.1388 20.8288 20.8387 22.1289 19.2355 22.1289H6.46301C4.85975 22.1289 3.55969 20.8288 3.55969 19.2256V6.45312C3.55969 4.84987 4.85975 3.5498 6.46301 3.5498H19.2355ZM9.34583 18.3174V20.334H10.5275V17.1357L9.34583 18.3174ZM15.172 12.4912V15.1611H12.5021L11.3204 16.3428H15.172V20.334H16.3527V16.3428H20.3439V15.1611H16.3527V11.3105L15.172 12.4912ZM19.8663 5.82227C19.6359 5.59207 19.2619 5.59223 19.0314 5.82227L5.83313 19.0215C5.60252 19.2521 5.60252 19.6258 5.83313 19.8564C6.06378 20.0866 6.43763 20.0869 6.66809 19.8564L19.8663 6.6582C20.0967 6.42765 20.0967 6.05283 19.8663 5.82227ZM12.8195 17.667C12.2976 17.6672 11.8751 18.0904 11.8751 18.6123C11.8752 19.1341 12.2977 19.5574 12.8195 19.5576C13.3412 19.5574 13.7647 19.1341 13.7648 18.6123C13.7648 18.0905 13.3412 17.6672 12.8195 17.667ZM18.5206 17.667C17.9987 17.667 17.5753 18.0903 17.5753 18.6123C17.5754 19.1342 17.9987 19.5576 18.5206 19.5576C19.0424 19.5574 19.4659 19.1341 19.4659 18.6123C19.4659 18.0905 19.0424 17.6672 18.5206 17.667ZM5.35461 15.1611V16.3428H7.37122L8.55286 15.1611H5.35461ZM9.34583 5.34473V9.33594H5.35461V10.5166H9.34583V14.3682L10.5275 13.1865V10.5166H13.1974L14.3781 9.33594H10.5275V5.34473H9.34583ZM18.3273 9.33594L17.1466 10.5166H20.3439V9.33594H18.3273ZM15.172 5.34473V8.54199L16.3527 7.36133V5.34473H15.172Z" fill="#222222"/>
</svg>
