<svg xmlns="http://www.w3.org/2000/svg" viewBox="0 0 989.2 791.36"><defs><style>.cls-1{fill:#233050;}</style></defs><g id="Layer_2" data-name="Layer 2"><g id="Layer_1-2" data-name="Layer 1"><path class="cls-1" d="M640.15,239.92c-4.76-33.4-15.4-64.74-33.15-93.4-24.51-39.59-58.19-70-97.4-94.49C452,16.13,388.4,1.72,321.65,0c-12.3.61-24.27,1-36.22,2.24C240.15,7,196.68,17.94,156.12,39.07,117,59.46,82.33,85.7,54.67,120.28,11.94,173.69-5.87,234.58,2.32,302.71a228.13,228.13,0,0,0,27,83C37.69,401,48.07,414.8,59,428.27c1.14,1.42,2.9,2.47,1.64,5.11-7.88,16.57-15.87,33-29.38,46-8.12,7.81-16.39,15.48-24.33,23.47-6.69,6.75-8.52,15.16-5.49,24s9.21,15.3,18.92,16.47c14.33,1.73,28.55-.54,42.71-2.52,32.19-4.5,62.17-15.69,90.68-31,4-2.13,7.08-2.3,11-.3a162.36,162.36,0,0,0,15.9,7.22c65.52,25.44,132.89,33.48,202.46,21.72,58.89-10,112.38-31.86,159.26-69.45C574,443.64,600.38,414,618,377.34,638.86,333.89,647,288.06,640.15,239.92ZM321.91,451.16c-22.71-.12-42.53-16.91-42.07-43-.62-26.8,20.34-42.76,41.05-42.93,24.23-.19,42.37,18.34,42.31,42.92C363.13,432.24,345,451.27,321.91,451.16ZM433.67,207.35C430.35,238.92,414.46,261.16,387,276c-10.53,5.7-20.93,11.65-31.51,17.25a7.38,7.38,0,0,0-4.13,5.65c-3.36,16.46-11.84,24.45-28.4,26.9-9.46,1.4-24.16-6.81-28.34-16.11-6.08-13.49-5.42-27.67-2.78-41.64,1.66-8.81,8.33-14.45,16-18.78q27-15.15,53.83-30.58a20.57,20.57,0,0,0,4.68-32.45c-4-4.08-9.23-5.28-14.63-5.3-23.82-.12-47.65-.09-71.47,0-6.9,0-9.29,1.93-11.64,8.62-5.29,15-22.71,23.55-39.28,19.19-13.87-3.66-24-19.73-20.33-34.5,6.56-26.2,23.1-43.62,49-51.76,13.44-4.22,27.31-3.56,41.12-3.52,5.67,0,11.33,0,19.73,0,13.72.6,30.27-1.33,46.65,1.4C407.06,127.24,438.15,164.61,433.67,207.35Z"/><path class="cls-1" d="M989.2,517c-.54,55-16.48,102.19-47.35,144.3-3.74,5.09-7.82,10-12,14.68-1.86,2.1-1.82,3.69-.79,6.17,8.54,20.52,22.16,37.45,37.67,53,4.52,4.52,8.94,9.18,14.33,13,7.53,5.28,10,17.12,6.65,26.9-3.4,10-11.29,16.45-21.48,16.33-38.75-.46-76.05-7.73-111.23-24.48-7.06-3.36-14.13-6.73-21-10.42a7.78,7.78,0,0,0-7.87-.07c-34.36,16.48-70.68,26.43-108.29,31.67a380.31,380.31,0,0,1-174.27-17.66c-37.77-13.33-71.78-33.27-102.64-58.66q-56.71-46.65-81.12-116c-1.47-4.16.66-4,3.29-4.26a454.46,454.46,0,0,0,68.67-12.55,389.71,389.71,0,0,0,135.71-65.74c51.7-39,89.41-88.18,109.64-150a307.93,307.93,0,0,0,15.06-102.75,33.18,33.18,0,0,0-.32-4c-1.14-8.65-2-7.56,6.48-6.87a375.21,375.21,0,0,1,93.62,19.25C830.69,282.32,866,302,897.06,329c28.62,24.86,52.31,53.62,68.6,88a242,242,0,0,1,21.46,73.48C988.37,500.17,988.93,510,989.2,517Z"/></g></g></svg>