
<svg width="74" height="22" viewBox="0 0 74 22" fill="none" xmlns="http://www.w3.org/2000/svg">
    <path
        d="M1.506 15.946C1.40333 15.946 1.286 15.8947 1.154 15.792C1.022 15.6893 0.956 15.5793 0.956 15.462C0.956 15.33 1.10267 14.9927 1.396 14.45C1.68933 13.9073 2.15867 13.0933 2.804 12.008C3.44933 10.9227 4.29267 9.51467 5.334 7.784L8.216 2.966C8.37733 2.67267 8.57533 2.328 8.81 1.932C9.04467 1.536 9.33067 1.06667 9.668 0.523999C9.756 0.391999 9.85133 0.325999 9.954 0.325999C10.0567 0.325999 10.1593 0.377332 10.262 0.479999C10.3647 0.567999 10.416 0.663333 10.416 0.766C10.416 0.824666 10.0493 1.47733 9.316 2.724C8.58267 3.956 7.47533 5.79667 5.994 8.246C5.43667 9.17 4.828 10.1893 4.168 11.304C3.52267 12.4187 2.83333 13.6287 2.1 14.934C6.35333 13.79 9.624 13.218 11.912 13.218C12.6013 13.218 13.1733 13.3353 13.628 13.57C14.0973 13.79 14.332 14.01 14.332 14.23C14.332 14.4793 14.2073 14.604 13.958 14.604C13.7527 14.604 13.65 14.494 13.65 14.274V14.208C13.5033 14.1347 13.254 14.076 12.902 14.032C12.55 13.988 12.1467 13.966 11.692 13.966C11.1347 13.966 10.504 14.0173 9.8 14.12C9.096 14.208 8.37733 14.3253 7.644 14.472C6.92533 14.604 6.25067 14.7433 5.62 14.89C5.004 15.022 4.41733 15.1613 3.86 15.308C3.31733 15.4693 2.81133 15.6087 2.342 15.726C2.06333 15.7847 1.858 15.836 1.726 15.88C1.60867 15.924 1.53533 15.946 1.506 15.946ZM18.1626 15.396C17.5466 15.396 17.0626 15.1833 16.7106 14.758C16.3586 14.3327 16.1826 13.812 16.1826 13.196C16.1826 12.14 16.5346 11.0547 17.2386 9.94C17.4292 9.632 17.6492 9.33133 17.8986 9.038C18.1479 8.73 18.4192 8.43667 18.7126 8.158C19.1526 7.73267 19.6146 7.38067 20.0986 7.102C20.5826 6.82333 21.0519 6.684 21.5066 6.684C22.2546 6.684 22.6286 7.036 22.6286 7.74C22.6286 8.62 22.1152 9.41933 21.0886 10.138C20.1352 10.7833 19.1966 11.106 18.2726 11.106C18.1112 11.106 17.9646 11.0987 17.8326 11.084C17.7152 11.0547 17.6052 11.0253 17.5026 10.996C17.3559 11.2747 17.2239 11.634 17.1066 12.074C16.9892 12.514 16.9306 12.8953 16.9306 13.218C16.9306 14.186 17.3559 14.67 18.2066 14.67C18.8959 14.67 19.5486 14.5527 20.1646 14.318C20.7806 14.0687 21.5139 13.6067 22.3646 12.932C22.8926 12.5213 23.2886 12.1913 23.5526 11.942C23.8166 11.6927 24.1026 11.4287 24.4106 11.15C24.4986 11.0913 24.5792 11.062 24.6526 11.062C24.7259 11.062 24.7992 11.084 24.8726 11.128C24.9459 11.172 24.9826 11.238 24.9826 11.326C24.9826 11.4873 24.8359 11.7147 24.5426 12.008C24.2932 12.2427 24.0292 12.492 23.7506 12.756C23.4719 13.0053 23.0319 13.3573 22.4306 13.812C21.7852 14.3107 21.0812 14.6993 20.3186 14.978C19.5559 15.2567 18.8372 15.396 18.1626 15.396ZM18.1406 10.402C18.6099 10.402 19.0572 10.3287 19.4826 10.182C19.9079 10.0353 20.3112 9.82267 20.6926 9.544C21.5432 8.91333 21.9686 8.31933 21.9686 7.762C21.9686 7.51267 21.8146 7.388 21.5066 7.388C20.9199 7.388 20.2379 7.74733 19.4606 8.466C19.0792 8.818 18.7639 9.14067 18.5146 9.434C18.2799 9.71267 18.0599 10.0207 17.8546 10.358C17.9426 10.3873 18.0379 10.402 18.1406 10.402ZM24.137 15.726C23.3156 15.726 22.905 15.4547 22.905 14.912C22.905 14.5747 23.0223 14.2373 23.257 13.9C23.5063 13.5627 23.7996 13.2547 24.137 12.976C24.4743 12.6973 24.7896 12.4847 25.083 12.338C25.171 12.294 25.2883 12.25 25.435 12.206C25.5963 12.162 25.7283 12.14 25.831 12.14C25.9483 12.14 26.007 12.184 26.007 12.272C26.007 12.3453 25.9263 12.426 25.765 12.514C25.0903 12.8367 24.5623 13.2253 24.181 13.68C23.8143 14.12 23.631 14.4793 23.631 14.758C23.631 15.022 23.8583 15.154 24.313 15.154C24.6943 15.154 25.105 15.0587 25.545 14.868C25.9996 14.6773 26.425 14.428 26.821 14.12C27.2316 13.812 27.569 13.482 27.833 13.13C28.097 12.778 28.229 12.4407 28.229 12.118C28.229 11.898 28.1556 11.7 28.009 11.524C27.877 11.348 27.657 11.216 27.349 11.128L25.897 10.688C25.5303 10.5707 25.2663 10.4167 25.105 10.226C24.9436 10.0353 24.863 9.82267 24.863 9.588C24.863 9.148 25.0243 8.752 25.347 8.4C25.6843 8.048 26.1023 7.76933 26.601 7.564C27.0996 7.35867 27.5836 7.256 28.053 7.256C28.5223 7.256 28.933 7.37333 29.285 7.608C29.637 7.828 29.813 8.12867 29.813 8.51C29.813 8.73 29.747 8.93533 29.615 9.126C29.4976 9.31667 29.3583 9.412 29.197 9.412C28.9476 9.412 28.823 9.30933 28.823 9.104C28.823 9.03067 28.8596 8.94267 28.933 8.84C29.021 8.72267 29.065 8.61267 29.065 8.51C29.065 8.07 28.7276 7.85 28.053 7.85C27.6863 7.85 27.3196 7.93067 26.953 8.092C26.601 8.23867 26.3076 8.43667 26.073 8.686C25.8383 8.93533 25.721 9.20667 25.721 9.5C25.721 9.79333 26.0143 10.028 26.601 10.204L28.009 10.644C28.4343 10.776 28.7276 10.9593 28.889 11.194C29.0503 11.414 29.131 11.6633 29.131 11.942C29.131 12.602 28.7276 13.284 27.921 13.988C26.6156 15.1467 25.3543 15.726 24.137 15.726ZM32.7075 15.396C32.0915 15.396 31.6075 15.1833 31.2555 14.758C30.9035 14.3327 30.7275 13.812 30.7275 13.196C30.7275 12.14 31.0795 11.0547 31.7835 9.94C31.9742 9.632 32.1942 9.33133 32.4435 9.038C32.6928 8.73 32.9642 8.43667 33.2575 8.158C33.6975 7.73267 34.1595 7.38067 34.6435 7.102C35.1275 6.82333 35.5968 6.684 36.0515 6.684C36.7995 6.684 37.1735 7.036 37.1735 7.74C37.1735 8.62 36.6602 9.41933 35.6335 10.138C34.6802 10.7833 33.7415 11.106 32.8175 11.106C32.6562 11.106 32.5095 11.0987 32.3775 11.084C32.2602 11.0547 32.1502 11.0253 32.0475 10.996C31.9008 11.2747 31.7688 11.634 31.6515 12.074C31.5342 12.514 31.4755 12.8953 31.4755 13.218C31.4755 14.186 31.9008 14.67 32.7515 14.67C33.4408 14.67 34.0935 14.5527 34.7095 14.318C35.3255 14.0687 36.0588 13.6067 36.9095 12.932C37.4375 12.5213 37.8335 12.1913 38.0975 11.942C38.3615 11.6927 38.6475 11.4287 38.9555 11.15C39.0435 11.0913 39.1242 11.062 39.1975 11.062C39.2708 11.062 39.3442 11.084 39.4175 11.128C39.4908 11.172 39.5275 11.238 39.5275 11.326C39.5275 11.4873 39.3808 11.7147 39.0875 12.008C38.8382 12.2427 38.5742 12.492 38.2955 12.756C38.0168 13.0053 37.5768 13.3573 36.9755 13.812C36.3302 14.3107 35.6262 14.6993 34.8635 14.978C34.1008 15.2567 33.3822 15.396 32.7075 15.396ZM32.6855 10.402C33.1548 10.402 33.6022 10.3287 34.0275 10.182C34.4528 10.0353 34.8562 9.82267 35.2375 9.544C36.0882 8.91333 36.5135 8.31933 36.5135 7.762C36.5135 7.51267 36.3595 7.388 36.0515 7.388C35.4648 7.388 34.7828 7.74733 34.0055 8.466C33.6242 8.818 33.3088 9.14067 33.0595 9.434C32.8248 9.71267 32.6048 10.0207 32.3995 10.358C32.4875 10.3873 32.5828 10.402 32.6855 10.402ZM37.0759 21.072C36.3865 21.072 36.0419 20.5807 36.0419 19.598C36.0419 18.3073 36.6065 16.254 37.7359 13.438C37.9265 12.9687 38.1539 12.4773 38.4179 11.964C38.6819 11.4507 38.9899 10.908 39.3419 10.336C39.7085 9.72 40.0532 9.18467 40.3759 8.73C40.7132 8.27533 41.0065 7.90867 41.2559 7.63C41.3439 7.542 41.4172 7.48333 41.4759 7.454C41.5492 7.42467 41.6079 7.41 41.6519 7.41C42.0332 7.41 42.4659 7.52 42.9499 7.74C43.4339 7.96 43.8665 8.23867 44.2479 8.576C44.5999 8.86933 44.8859 9.22133 45.1059 9.632C45.3259 10.0427 45.4359 10.468 45.4359 10.908C45.4359 11.2307 45.3699 11.5607 45.2379 11.898C45.1205 12.2207 44.9592 12.5433 44.7539 12.866C45.1352 12.7927 45.5972 12.624 46.1399 12.36C46.6972 12.096 47.2619 11.6927 47.8339 11.15C47.8925 11.0913 47.9732 11.062 48.0759 11.062C48.2959 11.062 48.4059 11.15 48.4059 11.326C48.4059 11.3993 48.3692 11.4947 48.2959 11.612C48.2372 11.7147 48.1272 11.8467 47.9659 12.008C46.8805 13.0053 45.5752 13.5773 44.0499 13.724C43.8299 13.9587 43.5879 14.186 43.3239 14.406C43.0745 14.6113 42.8105 14.802 42.5319 14.978C41.6812 15.4913 40.9552 15.748 40.3539 15.748C40.1045 15.748 39.8992 15.6673 39.7379 15.506C39.5765 15.3447 39.4959 15.1613 39.4959 14.956C39.4959 14.2813 40.0825 13.768 41.2559 13.416C41.6812 13.2987 42.1065 13.196 42.5319 13.108C42.9572 13.02 43.3752 12.9247 43.7859 12.822C44.0792 12.3673 44.2919 11.9713 44.4239 11.634C44.5705 11.2967 44.6439 11.0107 44.6439 10.776C44.6439 9.99867 44.0645 9.258 42.9059 8.554C42.4512 8.27533 42.0919 8.14333 41.8279 8.158C40.6252 9.478 39.4885 11.326 38.4179 13.702C37.3032 16.1513 36.7459 18.08 36.7459 19.488C36.7459 19.8253 36.7752 20.0527 36.8339 20.17C36.8925 20.2873 36.9952 20.346 37.1419 20.346C37.1859 20.346 37.2225 20.3387 37.2519 20.324C37.2812 20.324 37.3105 20.324 37.3399 20.324C37.5305 20.324 37.6259 20.4413 37.6259 20.676C37.6259 20.94 37.4425 21.072 37.0759 21.072ZM40.5079 15.044C41.0505 15.044 41.8352 14.6187 42.8619 13.768C42.6272 13.7973 42.3999 13.834 42.1799 13.878C41.9745 13.922 41.6739 14.0027 41.2779 14.12C40.6179 14.3107 40.2879 14.5527 40.2879 14.846C40.2879 14.978 40.3612 15.044 40.5079 15.044ZM46.4309 15.55C46.1962 15.55 46.0789 15.4547 46.0789 15.264C46.0789 15.176 46.1009 15.088 46.1449 15C46.2035 14.912 46.2475 14.8387 46.2769 14.78L48.2789 10.732C49.1295 9.00133 49.5549 8.04067 49.5549 7.85C49.5549 7.64467 49.6575 7.542 49.8629 7.542C50.1415 7.542 50.2809 7.68133 50.2809 7.96C50.2809 8.10667 50.2149 8.34133 50.0829 8.664C49.9509 8.98667 49.7822 9.36067 49.5769 9.786C49.2249 10.5487 48.9315 11.1353 48.6969 11.546C49.1369 11.0327 49.5842 10.5487 50.0389 10.094C50.4935 9.63933 50.9555 9.20667 51.4249 8.796C52.8182 7.57867 53.8889 6.97 54.6369 6.97C55.1502 6.97 55.4069 7.212 55.4069 7.696C55.4069 8.16533 55.2529 8.4 54.9449 8.4C54.7982 8.4 54.6882 8.27533 54.6149 8.026C54.5709 7.85 54.4682 7.762 54.3069 7.762C54.0575 7.762 53.5735 8.03333 52.8549 8.576C52.0629 9.16267 51.2635 9.85933 50.4569 10.666C49.6649 11.4727 48.8215 12.4993 47.9269 13.746L46.8269 15.286C46.7682 15.3593 46.7095 15.418 46.6509 15.462C46.6069 15.5207 46.5335 15.55 46.4309 15.55ZM56.4692 15.396C55.8532 15.396 55.3692 15.1833 55.0172 14.758C54.6652 14.3327 54.4892 13.812 54.4892 13.196C54.4892 12.14 54.8412 11.0547 55.5452 9.94C55.7359 9.632 55.9559 9.33133 56.2052 9.038C56.4546 8.73 56.7259 8.43667 57.0192 8.158C57.4592 7.73267 57.9212 7.38067 58.4052 7.102C58.8892 6.82333 59.3586 6.684 59.8132 6.684C60.5612 6.684 60.9352 7.036 60.9352 7.74C60.9352 8.62 60.4219 9.41933 59.3952 10.138C58.4419 10.7833 57.5032 11.106 56.5792 11.106C56.4179 11.106 56.2712 11.0987 56.1392 11.084C56.0219 11.0547 55.9119 11.0253 55.8092 10.996C55.6626 11.2747 55.5306 11.634 55.4132 12.074C55.2959 12.514 55.2372 12.8953 55.2372 13.218C55.2372 14.186 55.6626 14.67 56.5132 14.67C57.2026 14.67 57.8552 14.5527 58.4712 14.318C59.0872 14.0687 59.8206 13.6067 60.6712 12.932C61.1992 12.5213 61.5952 12.1913 61.8592 11.942C62.1232 11.6927 62.4092 11.4287 62.7172 11.15C62.8052 11.0913 62.8859 11.062 62.9592 11.062C63.0326 11.062 63.1059 11.084 63.1792 11.128C63.2526 11.172 63.2892 11.238 63.2892 11.326C63.2892 11.4873 63.1426 11.7147 62.8492 12.008C62.5999 12.2427 62.3359 12.492 62.0572 12.756C61.7786 13.0053 61.3386 13.3573 60.7372 13.812C60.0919 14.3107 59.3879 14.6993 58.6252 14.978C57.8626 15.2567 57.1439 15.396 56.4692 15.396ZM56.4472 10.402C56.9166 10.402 57.3639 10.3287 57.7892 10.182C58.2146 10.0353 58.6179 9.82267 58.9992 9.544C59.8499 8.91333 60.2752 8.31933 60.2752 7.762C60.2752 7.51267 60.1212 7.388 59.8132 7.388C59.2266 7.388 58.5446 7.74733 57.7672 8.466C57.3859 8.818 57.0706 9.14067 56.8212 9.434C56.5866 9.71267 56.3666 10.0207 56.1612 10.358C56.2492 10.3873 56.3446 10.402 56.4472 10.402ZM66.7336 6.332C66.4843 6.332 66.3596 6.20733 66.3596 5.958C66.3596 5.88467 66.4109 5.75267 66.5136 5.562C66.6163 5.35667 66.7336 5.15133 66.8656 4.946C66.9976 4.74067 67.1003 4.60133 67.1736 4.528C67.4229 4.24933 67.6136 4.07333 67.7456 4C67.8923 3.92667 68.0243 3.89 68.1416 3.89C68.4496 3.89 68.6036 4.02933 68.6036 4.308C68.6036 4.41067 68.5376 4.53533 68.4056 4.682C68.2883 4.814 68.1489 4.93867 67.9876 5.056C67.7529 5.20267 67.6063 5.32 67.5476 5.408L67.0636 6.09C67.0489 6.14867 67.0123 6.20733 66.9536 6.266C66.9096 6.31 66.8363 6.332 66.7336 6.332ZM62.9936 15.242C62.5829 15.242 62.2823 15.1613 62.0916 15C61.9156 14.8387 61.8276 14.5967 61.8276 14.274C61.8276 13.966 61.9229 13.548 62.1136 13.02C62.3043 12.4773 62.5463 11.898 62.8396 11.282C63.1476 10.666 63.4703 10.0793 63.8076 9.522C64.1449 8.96467 64.4676 8.51 64.7756 8.158C65.0983 7.79133 65.3549 7.608 65.5456 7.608C65.8096 7.608 65.9416 7.72533 65.9416 7.96C65.9416 8.10667 65.8169 8.38533 65.5676 8.796C65.3183 9.20667 65.0469 9.632 64.7536 10.072C64.6363 10.2333 64.4749 10.4533 64.2696 10.732C64.0643 11.0107 63.8663 11.2747 63.6756 11.524C63.4849 11.7587 63.3603 11.92 63.3016 12.008C63.1549 12.228 63.0009 12.5873 62.8396 13.086C62.6636 13.5847 62.5756 13.966 62.5756 14.23C62.5756 14.3473 62.5976 14.4353 62.6416 14.494C62.7003 14.5527 62.8249 14.582 63.0156 14.582C63.3823 14.582 63.7929 14.4647 64.2476 14.23C64.7023 13.9953 65.1643 13.702 65.6336 13.35C66.1029 12.9833 66.5429 12.6093 66.9536 12.228C67.3789 11.8467 67.7383 11.5167 68.0316 11.238C68.0903 11.1793 68.1783 11.15 68.2956 11.15C68.5156 11.15 68.6256 11.238 68.6256 11.414C68.6256 11.5753 68.5229 11.7587 68.3176 11.964C67.9216 12.36 67.5549 12.712 67.2176 13.02C66.8803 13.328 66.5576 13.5993 66.2496 13.834C65.7656 14.186 65.2303 14.5087 64.6436 14.802C64.0569 15.0953 63.5069 15.242 62.9936 15.242ZM67.8147 15.726C66.9934 15.726 66.5827 15.4547 66.5827 14.912C66.5827 14.5747 66.7 14.2373 66.9347 13.9C67.184 13.5627 67.4774 13.2547 67.8147 12.976C68.152 12.6973 68.4674 12.4847 68.7607 12.338C68.8487 12.294 68.966 12.25 69.1127 12.206C69.274 12.162 69.406 12.14 69.5087 12.14C69.626 12.14 69.6847 12.184 69.6847 12.272C69.6847 12.3453 69.604 12.426 69.4427 12.514C68.768 12.8367 68.24 13.2253 67.8587 13.68C67.492 14.12 67.3087 14.4793 67.3087 14.758C67.3087 15.022 67.536 15.154 67.9907 15.154C68.372 15.154 68.7827 15.0587 69.2227 14.868C69.6774 14.6773 70.1027 14.428 70.4987 14.12C70.9094 13.812 71.2467 13.482 71.5107 13.13C71.7747 12.778 71.9067 12.4407 71.9067 12.118C71.9067 11.898 71.8334 11.7 71.6867 11.524C71.5547 11.348 71.3347 11.216 71.0267 11.128L69.5747 10.688C69.208 10.5707 68.944 10.4167 68.7827 10.226C68.6214 10.0353 68.5407 9.82267 68.5407 9.588C68.5407 9.148 68.702 8.752 69.0247 8.4C69.362 8.048 69.78 7.76933 70.2787 7.564C70.7774 7.35867 71.2614 7.256 71.7307 7.256C72.2 7.256 72.6107 7.37333 72.9627 7.608C73.3147 7.828 73.4907 8.12867 73.4907 8.51C73.4907 8.73 73.4247 8.93533 73.2927 9.126C73.1754 9.31667 73.036 9.412 72.8747 9.412C72.6254 9.412 72.5007 9.30933 72.5007 9.104C72.5007 9.03067 72.5374 8.94267 72.6107 8.84C72.6987 8.72267 72.7427 8.61267 72.7427 8.51C72.7427 8.07 72.4054 7.85 71.7307 7.85C71.364 7.85 70.9974 7.93067 70.6307 8.092C70.2787 8.23867 69.9854 8.43667 69.7507 8.686C69.516 8.93533 69.3987 9.20667 69.3987 9.5C69.3987 9.79333 69.692 10.028 70.2787 10.204L71.6867 10.644C72.112 10.776 72.4054 10.9593 72.5667 11.194C72.728 11.414 72.8087 11.6633 72.8087 11.942C72.8087 12.602 72.4054 13.284 71.5987 13.988C70.2934 15.1467 69.032 15.726 67.8147 15.726Z"
    fill="black" />
</svg>