<svg width="121" height="54" viewBox="0 0 121 54" fill="none" xmlns="http://www.w3.org/2000/svg">
<path d="M2.34375 48V30.8672H4.33594V46.2188H11.9414V48H2.34375ZM19.5352 34.9219C20.6289 34.9219 21.5664 35.1641 22.3477 35.6484C23.1289 36.1328 23.7266 36.8125 24.1406 37.6875C24.5547 38.5547 24.7617 39.5703 24.7617 40.7344V41.9414H15.8906C15.9141 43.4492 16.2891 44.5977 17.0156 45.3867C17.7422 46.1758 18.7656 46.5703 20.0859 46.5703C20.8984 46.5703 21.6172 46.4961 22.2422 46.3477C22.8672 46.1992 23.5156 45.9805 24.1875 45.6914V47.4023C23.5391 47.6914 22.8945 47.9023 22.2539 48.0352C21.6211 48.168 20.8711 48.2344 20.0039 48.2344C18.7695 48.2344 17.6914 47.9844 16.7695 47.4844C15.8555 46.9766 15.1445 46.2344 14.6367 45.2578C14.1289 44.2812 13.875 43.0859 13.875 41.6719C13.875 40.2891 14.1055 39.0938 14.5664 38.0859C15.0352 37.0703 15.6914 36.2891 16.5352 35.7422C17.3867 35.1953 18.3867 34.9219 19.5352 34.9219ZM19.5117 36.5156C18.4727 36.5156 17.6445 36.8555 17.0273 37.5352C16.4102 38.2148 16.043 39.1641 15.9258 40.3828H22.7227C22.7148 39.6172 22.5938 38.9453 22.3594 38.3672C22.1328 37.7812 21.7852 37.3281 21.3164 37.0078C20.8477 36.6797 20.2461 36.5156 19.5117 36.5156ZM36.375 44.4844C36.375 45.3047 36.168 45.9961 35.7539 46.5586C35.3477 47.1133 34.7617 47.5312 33.9961 47.8125C33.2383 48.0938 32.332 48.2344 31.2773 48.2344C30.3789 48.2344 29.6016 48.1641 28.9453 48.0234C28.2891 47.8828 27.7148 47.6836 27.2227 47.4258V45.6328C27.7461 45.8906 28.3711 46.125 29.0977 46.3359C29.8242 46.5469 30.5664 46.6523 31.3242 46.6523C32.4336 46.6523 33.2383 46.4727 33.7383 46.1133C34.2383 45.7539 34.4883 45.2656 34.4883 44.6484C34.4883 44.2969 34.3867 43.9883 34.1836 43.7227C33.9883 43.4492 33.6562 43.1875 33.1875 42.9375C32.7188 42.6797 32.0703 42.3984 31.2422 42.0938C30.4219 41.7812 29.7109 41.4727 29.1094 41.168C28.5156 40.8555 28.0547 40.4766 27.7266 40.0312C27.4062 39.5859 27.2461 39.0078 27.2461 38.2969C27.2461 37.2109 27.6836 36.3789 28.5586 35.8008C29.4414 35.2148 30.5977 34.9219 32.0273 34.9219C32.8008 34.9219 33.5234 35 34.1953 35.1562C34.875 35.3047 35.5078 35.5078 36.0938 35.7656L35.4375 37.3242C34.9062 37.0977 34.3398 36.9062 33.7383 36.75C33.1367 36.5938 32.5234 36.5156 31.8984 36.5156C31 36.5156 30.3086 36.6641 29.8242 36.9609C29.3477 37.2578 29.1094 37.6641 29.1094 38.1797C29.1094 38.5781 29.2188 38.9062 29.4375 39.1641C29.6641 39.4219 30.0234 39.6641 30.5156 39.8906C31.0078 40.1172 31.6562 40.3828 32.4609 40.6875C33.2656 40.9844 33.9609 41.293 34.5469 41.6133C35.1328 41.9258 35.582 42.3086 35.8945 42.7617C36.2148 43.207 36.375 43.7812 36.375 44.4844ZM44.4492 34.9219C45.543 34.9219 46.4805 35.1641 47.2617 35.6484C48.043 36.1328 48.6406 36.8125 49.0547 37.6875C49.4688 38.5547 49.6758 39.5703 49.6758 40.7344V41.9414H40.8047C40.8281 43.4492 41.2031 44.5977 41.9297 45.3867C42.6562 46.1758 43.6797 46.5703 45 46.5703C45.8125 46.5703 46.5312 46.4961 47.1562 46.3477C47.7812 46.1992 48.4297 45.9805 49.1016 45.6914V47.4023C48.4531 47.6914 47.8086 47.9023 47.168 48.0352C46.5352 48.168 45.7852 48.2344 44.918 48.2344C43.6836 48.2344 42.6055 47.9844 41.6836 47.4844C40.7695 46.9766 40.0586 46.2344 39.5508 45.2578C39.043 44.2812 38.7891 43.0859 38.7891 41.6719C38.7891 40.2891 39.0195 39.0938 39.4805 38.0859C39.9492 37.0703 40.6055 36.2891 41.4492 35.7422C42.3008 35.1953 43.3008 34.9219 44.4492 34.9219ZM44.4258 36.5156C43.3867 36.5156 42.5586 36.8555 41.9414 37.5352C41.3242 38.2148 40.957 39.1641 40.8398 40.3828H47.6367C47.6289 39.6172 47.5078 38.9453 47.2734 38.3672C47.0469 37.7812 46.6992 37.3281 46.2305 37.0078C45.7617 36.6797 45.1602 36.5156 44.4258 36.5156ZM59.0156 34.9219C60.6172 34.9219 61.8945 35.4727 62.8477 36.5742C63.8008 37.6758 64.2773 39.332 64.2773 41.543C64.2773 43.0039 64.0586 44.2305 63.6211 45.2227C63.1836 46.2148 62.5664 46.9648 61.7695 47.4727C60.9805 47.9805 60.0469 48.2344 58.9688 48.2344C58.2891 48.2344 57.6914 48.1445 57.1758 47.9648C56.6602 47.7852 56.2188 47.543 55.8516 47.2383C55.4844 46.9336 55.1797 46.6016 54.9375 46.2422H54.7969C54.8203 46.5469 54.8477 46.9141 54.8789 47.3438C54.918 47.7734 54.9375 48.1484 54.9375 48.4688V53.7422H52.9805V35.1562H54.5859L54.8438 37.0547H54.9375C55.1875 36.6641 55.4922 36.3086 55.8516 35.9883C56.2109 35.6602 56.6484 35.4023 57.1641 35.2148C57.6875 35.0195 58.3047 34.9219 59.0156 34.9219ZM58.6758 36.5625C57.7852 36.5625 57.0664 36.7344 56.5195 37.0781C55.9805 37.4219 55.5859 37.9375 55.3359 38.625C55.0859 39.3047 54.9531 40.1602 54.9375 41.1914V41.5664C54.9375 42.6523 55.0547 43.5703 55.2891 44.3203C55.5312 45.0703 55.9258 45.6406 56.4727 46.0312C57.0273 46.4219 57.7695 46.6172 58.6992 46.6172C59.4961 46.6172 60.1602 46.4023 60.6914 45.9727C61.2227 45.543 61.6172 44.9453 61.875 44.1797C62.1406 43.4062 62.2734 42.5195 62.2734 41.5195C62.2734 40.0039 61.9766 38.8008 61.3828 37.9102C60.7969 37.0117 59.8945 36.5625 58.6758 36.5625ZM73.5117 34.9219C73.7695 34.9219 74.0391 34.9375 74.3203 34.9688C74.6016 34.9922 74.8516 35.0273 75.0703 35.0742L74.8242 36.8789C74.6133 36.8242 74.3789 36.7812 74.1211 36.75C73.8633 36.7188 73.6211 36.7031 73.3945 36.7031C72.8789 36.7031 72.3906 36.8086 71.9297 37.0195C71.4766 37.2227 71.0781 37.5195 70.7344 37.9102C70.3906 38.293 70.1211 38.7578 69.9258 39.3047C69.7305 39.8438 69.6328 40.4453 69.6328 41.1094V48H67.6758V35.1562H69.293L69.5039 37.5234H69.5859C69.8516 37.0469 70.1719 36.6133 70.5469 36.2227C70.9219 35.8242 71.3555 35.5078 71.8477 35.2734C72.3477 35.0391 72.9023 34.9219 73.5117 34.9219ZM82.4414 34.9219C83.5352 34.9219 84.4727 35.1641 85.2539 35.6484C86.0352 36.1328 86.6328 36.8125 87.0469 37.6875C87.4609 38.5547 87.668 39.5703 87.668 40.7344V41.9414H78.7969C78.8203 43.4492 79.1953 44.5977 79.9219 45.3867C80.6484 46.1758 81.6719 46.5703 82.9922 46.5703C83.8047 46.5703 84.5234 46.4961 85.1484 46.3477C85.7734 46.1992 86.4219 45.9805 87.0938 45.6914V47.4023C86.4453 47.6914 85.8008 47.9023 85.1602 48.0352C84.5273 48.168 83.7773 48.2344 82.9102 48.2344C81.6758 48.2344 80.5977 47.9844 79.6758 47.4844C78.7617 46.9766 78.0508 46.2344 77.543 45.2578C77.0352 44.2812 76.7812 43.0859 76.7812 41.6719C76.7812 40.2891 77.0117 39.0938 77.4727 38.0859C77.9414 37.0703 78.5977 36.2891 79.4414 35.7422C80.293 35.1953 81.293 34.9219 82.4414 34.9219ZM82.418 36.5156C81.3789 36.5156 80.5508 36.8555 79.9336 37.5352C79.3164 38.2148 78.9492 39.1641 78.832 40.3828H85.6289C85.6211 39.6172 85.5 38.9453 85.2656 38.3672C85.0391 37.7812 84.6914 37.3281 84.2227 37.0078C83.7539 36.6797 83.1523 36.5156 82.418 36.5156ZM92.918 35.1562V48H90.9727V35.1562H92.918ZM91.9688 30.3516C92.2891 30.3516 92.5625 30.457 92.7891 30.668C93.0234 30.8711 93.1406 31.1914 93.1406 31.6289C93.1406 32.0586 93.0234 32.3789 92.7891 32.5898C92.5625 32.8008 92.2891 32.9062 91.9688 32.9062C91.6328 32.9062 91.3516 32.8008 91.125 32.5898C90.9062 32.3789 90.7969 32.0586 90.7969 31.6289C90.7969 31.1914 90.9062 30.8711 91.125 30.668C91.3516 30.457 91.6328 30.3516 91.9688 30.3516ZM105.352 44.4844C105.352 45.3047 105.145 45.9961 104.73 46.5586C104.324 47.1133 103.738 47.5312 102.973 47.8125C102.215 48.0938 101.309 48.2344 100.254 48.2344C99.3555 48.2344 98.5781 48.1641 97.9219 48.0234C97.2656 47.8828 96.6914 47.6836 96.1992 47.4258V45.6328C96.7227 45.8906 97.3477 46.125 98.0742 46.3359C98.8008 46.5469 99.543 46.6523 100.301 46.6523C101.41 46.6523 102.215 46.4727 102.715 46.1133C103.215 45.7539 103.465 45.2656 103.465 44.6484C103.465 44.2969 103.363 43.9883 103.16 43.7227C102.965 43.4492 102.633 43.1875 102.164 42.9375C101.695 42.6797 101.047 42.3984 100.219 42.0938C99.3984 41.7812 98.6875 41.4727 98.0859 41.168C97.4922 40.8555 97.0312 40.4766 96.7031 40.0312C96.3828 39.5859 96.2227 39.0078 96.2227 38.2969C96.2227 37.2109 96.6602 36.3789 97.5352 35.8008C98.418 35.2148 99.5742 34.9219 101.004 34.9219C101.777 34.9219 102.5 35 103.172 35.1562C103.852 35.3047 104.484 35.5078 105.07 35.7656L104.414 37.3242C103.883 37.0977 103.316 36.9062 102.715 36.75C102.113 36.5938 101.5 36.5156 100.875 36.5156C99.9766 36.5156 99.2852 36.6641 98.8008 36.9609C98.3242 37.2578 98.0859 37.6641 98.0859 38.1797C98.0859 38.5781 98.1953 38.9062 98.4141 39.1641C98.6406 39.4219 99 39.6641 99.4922 39.8906C99.9844 40.1172 100.633 40.3828 101.438 40.6875C102.242 40.9844 102.938 41.293 103.523 41.6133C104.109 41.9258 104.559 42.3086 104.871 42.7617C105.191 43.207 105.352 43.7812 105.352 44.4844Z" fill="black"/>
<path d="M13.8516 1.86719L7.52344 19H6.32812L0 1.86719H1.26562L5.95312 14.5469C6.08594 14.9141 6.21094 15.2734 6.32812 15.625C6.44531 15.9688 6.55469 16.3008 6.65625 16.6211C6.75781 16.9414 6.84766 17.25 6.92578 17.5469C7.00391 17.25 7.08984 16.9492 7.18359 16.6445C7.28516 16.332 7.39453 16.0039 7.51172 15.6602C7.62891 15.3086 7.75781 14.9336 7.89844 14.5352L12.5742 1.86719H13.8516ZM20.7891 6.01562C21.875 6.01562 22.7773 6.26953 23.4961 6.77734C24.2227 7.28516 24.7617 7.98047 25.1133 8.86328C25.4727 9.74609 25.6523 10.7578 25.6523 11.8984V12.7539H16.4531C16.4531 14.5039 16.8555 15.8477 17.6602 16.7852C18.4727 17.7227 19.6328 18.1914 21.1406 18.1914C21.9297 18.1914 22.6133 18.1289 23.1914 18.0039C23.7773 17.8711 24.4258 17.6484 25.1367 17.3359V18.4258C24.5117 18.707 23.8867 18.9102 23.2617 19.0352C22.6367 19.168 21.918 19.2344 21.1055 19.2344C19.8164 19.2344 18.7344 18.9688 17.8594 18.4375C16.9922 17.8984 16.3359 17.1406 15.8906 16.1641C15.4531 15.1875 15.2344 14.0469 15.2344 12.7422C15.2344 11.4688 15.4453 10.3242 15.8672 9.30859C16.2969 8.29297 16.9219 7.49219 17.7422 6.90625C18.5703 6.3125 19.5859 6.01562 20.7891 6.01562ZM20.7773 7.03516C19.5586 7.03516 18.5703 7.44141 17.8125 8.25391C17.0625 9.05859 16.6211 10.2227 16.4883 11.7461H24.4219C24.4219 10.8164 24.2891 9.99609 24.0234 9.28516C23.7578 8.57422 23.3555 8.02344 22.8164 7.63281C22.2852 7.23438 21.6055 7.03516 20.7773 7.03516ZM34.2305 6.03906C34.5664 6.03906 34.8828 6.05859 35.1797 6.09766C35.4766 6.13672 35.7539 6.19141 36.0117 6.26172L35.8242 7.35156C35.5664 7.28125 35.3047 7.23047 35.0391 7.19922C34.7734 7.16016 34.4883 7.14062 34.1836 7.14062C33.582 7.14062 33.043 7.25391 32.5664 7.48047C32.0977 7.70703 31.6992 8.03125 31.3711 8.45312C31.043 8.875 30.793 9.38281 30.6211 9.97656C30.4492 10.5703 30.3633 11.2344 30.3633 11.9688V19H29.168V6.26172H30.1875L30.3047 8.66406H30.375C30.5703 8.17188 30.8438 7.73047 31.1953 7.33984C31.5547 6.94141 31.9883 6.625 32.4961 6.39062C33.0039 6.15625 33.582 6.03906 34.2305 6.03906ZM48.6914 19L45.9844 10.4453C45.8984 10.1875 45.8203 9.94141 45.75 9.70703C45.6797 9.47266 45.6133 9.24609 45.5508 9.02734C45.4883 8.80859 45.4297 8.59766 45.375 8.39453C45.3203 8.18359 45.2656 7.97656 45.2109 7.77344H45.1523C45.0977 7.97656 45.043 8.18359 44.9883 8.39453C44.9336 8.60547 44.875 8.82422 44.8125 9.05078C44.75 9.27734 44.6836 9.50781 44.6133 9.74219C44.543 9.97656 44.4648 10.2188 44.3789 10.4688L41.5781 19H40.3594L36.7383 6.26172H37.9922L40.2305 14.4062C40.3633 14.8828 40.4766 15.3086 40.5703 15.6836C40.6641 16.0586 40.7461 16.3984 40.8164 16.7031C40.8867 17.0078 40.9492 17.2969 41.0039 17.5703H41.0625C41.1094 17.375 41.1602 17.1719 41.2148 16.9609C41.2695 16.7422 41.3281 16.5078 41.3906 16.2578C41.4531 16.0078 41.5273 15.7422 41.6133 15.4609C41.6992 15.1797 41.793 14.875 41.8945 14.5469L44.625 6.26172H45.7969L48.4219 14.5234C48.5469 14.9219 48.6602 15.3047 48.7617 15.6719C48.8711 16.0312 48.9648 16.3672 49.043 16.6797C49.1289 16.9922 49.1992 17.2852 49.2539 17.5586H49.3242C49.3555 17.3008 49.4023 17.0195 49.4648 16.7148C49.5352 16.4023 49.6172 16.0547 49.7109 15.6719C49.8125 15.2891 49.9258 14.8672 50.0508 14.4062L52.207 6.26172H53.4023L49.9453 19H48.6914ZM60.3047 6.03906C61.7031 6.03906 62.75 6.39062 63.4453 7.09375C64.1406 7.79688 64.4883 8.91797 64.4883 10.457V19H63.5742L63.3633 16.7734H63.293C63.0195 17.25 62.6875 17.6758 62.2969 18.0508C61.9062 18.418 61.4258 18.707 60.8555 18.918C60.293 19.1289 59.6055 19.2344 58.793 19.2344C57.9727 19.2344 57.2695 19.0977 56.6836 18.8242C56.1055 18.5508 55.6562 18.1523 55.3359 17.6289C55.0234 17.1055 54.8672 16.4688 54.8672 15.7188C54.8672 14.4531 55.3906 13.4922 56.4375 12.8359C57.4844 12.1719 58.9883 11.7969 60.9492 11.7109L63.3164 11.5938V10.668C63.3164 9.36328 63.0586 8.43359 62.543 7.87891C62.0273 7.32422 61.2656 7.04688 60.2578 7.04688C59.6016 7.04688 58.9688 7.13281 58.3594 7.30469C57.7578 7.46875 57.1445 7.70703 56.5195 8.01953L56.1445 7.03516C56.7539 6.74609 57.4062 6.50781 58.1016 6.32031C58.8047 6.13281 59.5391 6.03906 60.3047 6.03906ZM63.3047 12.5195L61.0781 12.6133C59.4609 12.6914 58.2305 12.9805 57.3867 13.4805C56.543 13.9805 56.1211 14.7305 56.1211 15.7305C56.1211 16.5352 56.3711 17.1523 56.8711 17.582C57.3789 18.0117 58.082 18.2266 58.9805 18.2266C60.3789 18.2266 61.4453 17.8281 62.1797 17.0312C62.9219 16.2344 63.2969 15.1484 63.3047 13.7734V12.5195ZM69.7852 19H68.5898V0.765625H69.7852V19ZM77.4609 18.2148C77.8281 18.2148 78.168 18.1875 78.4805 18.1328C78.8008 18.0781 79.082 18.0078 79.3242 17.9219V18.9062C79.0742 18.9922 78.7812 19.0664 78.4453 19.1289C78.1094 19.1992 77.7383 19.2344 77.332 19.2344C76.6133 19.2344 76.0156 19.1016 75.5391 18.8359C75.0625 18.5625 74.7031 18.1523 74.4609 17.6055C74.2188 17.0508 74.0977 16.3477 74.0977 15.4961V7.24609H72.1992V6.54297L74.0859 6.17969L74.4961 3.17969H75.2812V6.26172H79.2539V7.24609H75.2812V15.4258C75.2812 16.3398 75.4492 17.0352 75.7852 17.5117C76.1289 17.9805 76.6875 18.2148 77.4609 18.2148ZM91.957 6.26172V19H90.9961L90.8203 16.7031H90.75C90.5312 17.1719 90.2227 17.5977 89.8242 17.9805C89.4258 18.3633 88.9375 18.668 88.3594 18.8945C87.7812 19.1211 87.1094 19.2344 86.3438 19.2344C85.3672 19.2344 84.5469 19.0664 83.8828 18.7305C83.2266 18.3867 82.7305 17.8711 82.3945 17.1836C82.0586 16.4961 81.8906 15.6367 81.8906 14.6055V6.26172H83.0742V14.4883C83.0742 15.7617 83.3594 16.6992 83.9297 17.3008C84.5078 17.9023 85.3516 18.2031 86.4609 18.2031C87.3984 18.2031 88.1836 18.0234 88.8164 17.6641C89.457 17.3047 89.9414 16.7617 90.2695 16.0352C90.6055 15.3008 90.7734 14.3867 90.7734 13.293V6.26172H91.957ZM101.848 6.01562C103.277 6.01562 104.375 6.39062 105.141 7.14062C105.906 7.89062 106.289 9.06641 106.289 10.668V19H105.117V10.7383C105.117 9.47266 104.828 8.54297 104.25 7.94922C103.672 7.35547 102.832 7.05859 101.73 7.05859C100.332 7.05859 99.2617 7.46875 98.5195 8.28906C97.7852 9.10156 97.418 10.332 97.418 11.9805V19H96.2344V6.26172H97.1953L97.3711 8.58203H97.4414C97.668 8.10547 97.9766 7.67578 98.3672 7.29297C98.7656 6.90234 99.2539 6.59375 99.832 6.36719C100.41 6.13281 101.082 6.01562 101.848 6.01562ZM113.789 24.7656C112.188 24.7656 110.941 24.457 110.051 23.8398C109.168 23.2227 108.727 22.3594 108.727 21.25C108.727 20.3906 108.996 19.6484 109.535 19.0234C110.074 18.4062 110.805 18.0352 111.727 17.9102C111.359 17.7383 111.059 17.5039 110.824 17.207C110.598 16.9102 110.484 16.5664 110.484 16.1758C110.484 15.7383 110.621 15.332 110.895 14.957C111.168 14.5742 111.578 14.2227 112.125 13.9023C111.391 13.6367 110.812 13.1875 110.391 12.5547C109.969 11.9141 109.758 11.1445 109.758 10.2461C109.758 9.38672 109.941 8.64062 110.309 8.00781C110.676 7.375 111.195 6.88672 111.867 6.54297C112.547 6.19141 113.348 6.01562 114.27 6.01562C114.551 6.01562 114.805 6.02344 115.031 6.03906C115.266 6.05469 115.48 6.08203 115.676 6.12109C115.871 6.15234 116.047 6.19531 116.203 6.25H120.316V7.09375L117.691 7.26953C118.035 7.68359 118.293 8.13281 118.465 8.61719C118.637 9.09375 118.723 9.59766 118.723 10.1289C118.723 11.3945 118.324 12.3984 117.527 13.1406C116.73 13.8828 115.621 14.2539 114.199 14.2539C113.809 14.2539 113.426 14.2188 113.051 14.1484C112.574 14.4297 112.211 14.7148 111.961 15.0039C111.711 15.2852 111.586 15.6367 111.586 16.0586C111.586 16.3242 111.664 16.543 111.82 16.7148C111.977 16.8789 112.203 17.0078 112.5 17.1016C112.797 17.1875 113.16 17.2305 113.59 17.2305H115.828C117.211 17.2305 118.27 17.5117 119.004 18.0742C119.738 18.6367 120.105 19.4648 120.105 20.5586C120.105 21.8945 119.555 22.9297 118.453 23.6641C117.359 24.3984 115.805 24.7656 113.789 24.7656ZM113.871 23.7695C114.988 23.7695 115.918 23.6484 116.66 23.4062C117.41 23.1641 117.973 22.8047 118.348 22.3281C118.723 21.8594 118.91 21.2773 118.91 20.582C118.91 20.0117 118.773 19.5703 118.5 19.2578C118.227 18.9453 117.84 18.7305 117.34 18.6133C116.84 18.4883 116.25 18.4258 115.57 18.4258H113.438C112.758 18.4258 112.152 18.5195 111.621 18.707C111.09 18.8867 110.676 19.1758 110.379 19.5742C110.09 19.9727 109.945 20.5039 109.945 21.168C109.945 22.0195 110.277 22.6641 110.941 23.1016C111.613 23.5469 112.59 23.7695 113.871 23.7695ZM114.246 13.3047C115.301 13.3047 116.109 13.0391 116.672 12.5078C117.234 11.9766 117.516 11.207 117.516 10.1992C117.516 9.12109 117.227 8.3125 116.648 7.77344C116.07 7.23438 115.262 6.96484 114.223 6.96484C113.215 6.96484 112.422 7.25391 111.844 7.83203C111.273 8.40234 110.988 9.20703 110.988 10.2461C110.988 11.2148 111.262 11.9688 111.809 12.5078C112.355 13.0391 113.168 13.3047 114.246 13.3047Z" fill="black"/>
</svg>
