<svg width="17" height="17" viewBox="0 0 17 17" fill="none" xmlns="http://www.w3.org/2000/svg">
<g clip-path="url(#clip0_570_512)">
<path d="M11.2789 2.26343V3.26343H14.7789C14.9115 3.26343 15.0387 3.31611 15.1325 3.40987C15.2263 3.50364 15.2789 3.63082 15.2789 3.76343C15.2789 3.89604 15.2263 4.02321 15.1325 4.11698C15.0387 4.21075 14.9115 4.26343 14.7789 4.26343H14.2409L13.3879 14.9234C13.3477 15.4246 13.1202 15.8923 12.7507 16.2333C12.3811 16.5742 11.8967 16.7635 11.3939 16.7634H5.16393C4.66112 16.7635 4.17673 16.5742 3.80721 16.2333C3.43768 15.8923 3.21016 15.4246 3.16993 14.9234L2.31693 4.26343H1.77893C1.64632 4.26343 1.51915 4.21075 1.42538 4.11698C1.33161 4.02321 1.27893 3.89604 1.27893 3.76343C1.27893 3.63082 1.33161 3.50364 1.42538 3.40987C1.51915 3.31611 1.64632 3.26343 1.77893 3.26343H5.27893V2.26343C5.27893 1.8656 5.43697 1.48407 5.71827 1.20277C5.99957 0.921463 6.38111 0.763428 6.77893 0.763428L9.77893 0.763428C10.1768 0.763428 10.5583 0.921463 10.8396 1.20277C11.1209 1.48407 11.2789 1.8656 11.2789 2.26343ZM6.27893 2.26343V3.26343H10.2789V2.26343C10.2789 2.13082 10.2263 2.00364 10.1325 1.90987C10.0387 1.81611 9.91154 1.76343 9.77893 1.76343H6.77893C6.64632 1.76343 6.51915 1.81611 6.42538 1.90987C6.33161 2.00364 6.27893 2.13082 6.27893 2.26343ZM4.77893 5.79243L5.27893 14.2924C5.2816 14.3589 5.2975 14.4241 5.32569 14.4843C5.35388 14.5446 5.39381 14.5986 5.44312 14.6432C5.49244 14.6878 5.55016 14.7221 5.6129 14.7441C5.67565 14.7662 5.74216 14.7754 5.80853 14.7715C5.87491 14.7675 5.93983 14.7503 5.99948 14.7209C6.05913 14.6915 6.11233 14.6505 6.15594 14.6003C6.19956 14.5501 6.23273 14.4917 6.2535 14.4286C6.27428 14.3654 6.28224 14.2987 6.27693 14.2324L5.77693 5.73243C5.77426 5.66598 5.75837 5.60074 5.73017 5.54051C5.70198 5.48029 5.66206 5.42629 5.61274 5.38168C5.56342 5.33707 5.5057 5.30275 5.44296 5.28072C5.38021 5.2587 5.31371 5.24941 5.24733 5.2534C5.18095 5.25739 5.11603 5.27458 5.05638 5.30397C4.99673 5.33335 4.94354 5.37434 4.89992 5.42454C4.8563 5.47473 4.82313 5.53312 4.80236 5.59629C4.78158 5.65946 4.77362 5.72614 4.77893 5.79243ZM11.3089 5.26443C11.1766 5.25678 11.0466 5.30199 10.9476 5.39012C10.8486 5.47826 10.7887 5.6021 10.7809 5.73443L10.2809 14.2344C10.2766 14.3648 10.3235 14.4917 10.4114 14.588C10.4993 14.6843 10.6214 14.7425 10.7517 14.75C10.8819 14.7576 11.0099 14.714 11.1084 14.6285C11.2069 14.543 11.2681 14.4224 11.2789 14.2924L11.7789 5.79243C11.7866 5.66009 11.7414 5.53014 11.6532 5.43113C11.5651 5.33212 11.4413 5.27216 11.3089 5.26443ZM8.27893 5.26343C8.14632 5.26343 8.01915 5.31611 7.92538 5.40987C7.83161 5.50364 7.77893 5.63082 7.77893 5.76343V14.2634C7.77893 14.396 7.83161 14.5232 7.92538 14.617C8.01915 14.7107 8.14632 14.7634 8.27893 14.7634C8.41154 14.7634 8.53872 14.7107 8.63248 14.617C8.72625 14.5232 8.77893 14.396 8.77893 14.2634V5.76343C8.77893 5.63082 8.72625 5.50364 8.63248 5.40987C8.53872 5.31611 8.41154 5.26343 8.27893 5.26343Z" fill="#D90000"/>
</g>
<defs>
<clipPath id="clip0_570_512">
<rect width="16" height="16" fill="white" transform="translate(0.278931 0.763428)"/>
</clipPath>
</defs>
</svg>
