<?xml version="1.0" encoding="utf-8"?>
<!-- Generator: Adobe Illustrator 25.4.1, SVG Export Plug-In . SVG Version: 6.00 Build 0)  -->
<svg version="1.1" id="Layer_1" xmlns="http://www.w3.org/2000/svg" xmlns:xlink="http://www.w3.org/1999/xlink" x="0px" y="0px"
	 viewBox="0 0 24 24" style="enable-background:new 0 0 24 24;" xml:space="preserve">
<style type="text/css">
	.st0{fill:#222222;}
	.st1{display:none;fill:#222222;}
</style>
<path class="st0" d="M15.7,8.3c0,2-1.6,3.6-3.7,3.6s-3.7-1.6-3.7-3.6c0-2,1.6-3.7,3.7-3.7S15.7,6.3,15.7,8.3z"/>
<path class="st1" d="M18.2,19.1c0,0.8-0.5,1.5-1.3,1.5H7.1c-0.7,0-1.2-0.7-1.2-1.5c0-3.5,2.2-6.4,5-6.4h2.3c0.9,0,1.8,0.3,2.6,0.9
	c1.3,1,2.3,2.8,2.4,4.9C18.2,18.7,18.2,18.9,18.2,19.1z"/>
<path class="st0" d="M17.7,19.1c0,0.5-0.3,1-0.8,1H7.1c-0.4,0-0.8-0.4-0.8-1c0-3.3,2-5.9,4.5-5.9h2.3C15.7,13.2,17.7,15.9,17.7,19.1
	z"/>
<path class="st0" d="M22.5,17.7c0,0.4-0.4,0.8-0.9,0.8h-3c-0.1-2-1-3.7-2.2-4.9h1.2C20.3,13.6,22.5,15.4,22.5,17.7z"/>
<path class="st0" d="M20.1,9.3c-0.1,1.6-1.5,2.7-3,2.6c-0.6,0-1.1-0.2-1.5-0.6c0.7-0.8,1.1-1.9,1.1-3c0-0.7-0.1-1.3-0.4-1.9
	c0.4-0.2,0.8-0.2,1.2-0.2C19,6.4,20.2,7.8,20.1,9.3z"/>
<path class="st0" d="M7.5,13.6c-1.2,1.1-2,2.9-2.2,4.9h-3c-0.5,0-0.9-0.3-0.9-0.8c0-2.3,2.2-4.1,4.9-4.1H7.5z"/>
<path class="st0" d="M8.5,11.4c-0.4,0.3-1,0.5-1.5,0.6c-1.6,0.1-2.9-1.1-3-2.6C3.8,7.8,5,6.4,6.5,6.3c0.4,0,0.8,0,1.2,0.2
	C7.5,7,7.3,7.7,7.3,8.3C7.3,9.5,7.8,10.5,8.5,11.4z"/>
</svg>
