<svg width="26" height="26" viewBox="0 0 26 26" fill="none" xmlns="http://www.w3.org/2000/svg">
<path fill-rule="evenodd" clip-rule="evenodd" d="M13 22.75C18.3848 22.75 22.75 18.3848 22.75 13C22.75 7.61522 18.3848 3.25 13 3.25C7.61522 3.25 3.25 7.61522 3.25 13C3.25 18.3848 7.61522 22.75 13 22.75ZM18.1016 10.3902C18.4551 9.96591 18.3978 9.33534 17.9735 8.98178C17.5492 8.62821 16.9187 8.68554 16.5651 9.10982L12.5505 13.9274C12.2038 14.3434 12.0089 14.5738 11.8532 14.7153L11.8473 14.7207L11.8409 14.7159C11.6731 14.589 11.4581 14.3772 11.0752 13.9943L9.37377 12.2929C8.98325 11.9024 8.35008 11.9024 7.95956 12.2929C7.56904 12.6834 7.56904 13.3166 7.95956 13.7071L9.66095 15.4085L9.70178 15.4493L9.70178 15.4493C10.0283 15.776 10.3424 16.0902 10.6346 16.3111C10.962 16.5587 11.3907 16.7915 11.9401 16.7665C12.4895 16.7416 12.8954 16.471 13.199 16.1948C13.47 15.9483 13.7544 15.6069 14.05 15.2521L14.05 15.2521L14.0869 15.2077L18.1016 10.3902Z" fill="#222222"/>
</svg>
