<svg width="26" height="26" viewBox="0 0 26 26" fill="none" xmlns="http://www.w3.org/2000/svg">
<path fill-rule="evenodd" clip-rule="evenodd" d="M7.04166 17.3333H17.3333C19.3761 17.3333 20.3975 17.3333 21.0321 16.6987C21.6667 16.0641 21.6667 15.0428 21.6667 13V7.58333C21.6667 5.54058 21.6667 4.5192 21.0321 3.8846C20.3975 3.25 19.3761 3.25 17.3333 3.25H8.66666C6.62391 3.25 5.60253 3.25 4.96793 3.8846C4.33333 4.5192 4.33333 5.54058 4.33333 7.58333V20.0417C4.33333 18.5459 5.54589 17.3333 7.04166 17.3333ZM17.6642 10.0809C18.4453 9.29983 18.4453 8.0335 17.6642 7.25245C16.8832 6.47141 15.6168 6.47141 14.8358 7.25245L11.9167 10.1716L11.1642 9.41912C10.3832 8.63807 9.11683 8.63807 8.33578 9.41912C7.55473 10.2002 7.55473 11.4665 8.33578 12.2475L9.79534 13.7071C10.9669 14.8787 12.8664 14.8787 14.038 13.7071L17.6642 10.0809Z" fill="#222222"/>
<path d="M21.0321 16.6987L20.325 15.9916H20.325L21.0321 16.6987ZM17.6642 7.25245L18.3713 6.54535L18.3713 6.54535L17.6642 7.25245ZM17.6642 10.0809L16.9571 9.37377V9.37377L17.6642 10.0809ZM14.8358 7.25245L15.5429 7.95956L14.8358 7.25245ZM11.9167 10.1716L11.2096 10.8787L11.9167 11.5858L12.6238 10.8787L11.9167 10.1716ZM11.1642 9.41912L11.8713 8.71201L11.8713 8.71201L11.1642 9.41912ZM8.33578 9.41912L7.62867 8.71201L7.62867 8.71201L8.33578 9.41912ZM9.79534 13.7071L10.5024 13H10.5024L9.79534 13.7071ZM17.3333 16.3333H7.04166V18.3333H17.3333V16.3333ZM20.325 15.9916C20.2244 16.0922 20.0566 16.1985 19.5775 16.2629C19.0696 16.3312 18.383 16.3333 17.3333 16.3333V18.3333C18.3264 18.3333 19.1719 18.3355 19.844 18.2451C20.5449 18.1509 21.2051 17.9399 21.7392 17.4058L20.325 15.9916ZM20.6667 13C20.6667 14.0496 20.6645 14.7363 20.5963 15.2442C20.5318 15.7233 20.4255 15.8911 20.325 15.9916L21.7392 17.4058C22.2732 16.8718 22.4842 16.2116 22.5784 15.5107C22.6688 14.8385 22.6667 13.9931 22.6667 13H20.6667ZM20.6667 7.58333V13H22.6667V7.58333H20.6667ZM20.325 4.59171C20.4255 4.69224 20.5318 4.86003 20.5963 5.33916C20.6645 5.84705 20.6667 6.53369 20.6667 7.58333H22.6667C22.6667 6.59023 22.6688 5.7448 22.5784 5.07266C22.4842 4.37176 22.2732 3.71157 21.7392 3.1775L20.325 4.59171ZM17.3333 4.25C18.383 4.25 19.0696 4.25212 19.5775 4.32041C20.0566 4.38482 20.2244 4.49118 20.325 4.59171L21.7392 3.1775C21.2051 2.64343 20.5449 2.43248 19.844 2.33824C19.1719 2.24788 18.3264 2.25 17.3333 2.25V4.25ZM8.66666 4.25H17.3333V2.25H8.66666V4.25ZM5.67504 4.59171C5.77557 4.49118 5.94336 4.38482 6.42249 4.32041C6.93038 4.25212 7.61702 4.25 8.66666 4.25V2.25C7.67355 2.25 6.82813 2.24788 6.15599 2.33824C5.45509 2.43248 4.79489 2.64343 4.26082 3.1775L5.67504 4.59171ZM5.33333 7.58333C5.33333 6.53369 5.33545 5.84705 5.40374 5.33916C5.46815 4.86003 5.5745 4.69224 5.67504 4.59171L4.26082 3.1775C3.72675 3.71157 3.5158 4.37176 3.42157 5.07266C3.3312 5.7448 3.33333 6.59023 3.33333 7.58333H5.33333ZM5.33333 20.0417V7.58333H3.33333V20.0417H5.33333ZM7.04166 16.3333C4.99361 16.3333 3.33333 17.9936 3.33333 20.0417H5.33333C5.33333 19.0982 6.09818 18.3333 7.04166 18.3333V16.3333ZM16.9571 7.95956C17.3476 8.35009 17.3476 8.98325 16.9571 9.37377L18.3713 10.788C19.5429 9.61642 19.5429 7.71692 18.3713 6.54535L16.9571 7.95956ZM15.5429 7.95956C15.9334 7.56904 16.5666 7.56904 16.9571 7.95956L18.3713 6.54535C17.1997 5.37377 15.3002 5.37377 14.1287 6.54535L15.5429 7.95956ZM12.6238 10.8787L15.5429 7.95956L14.1287 6.54535L11.2096 9.46447L12.6238 10.8787ZM10.4571 10.1262L11.2096 10.8787L12.6238 9.46447L11.8713 8.71201L10.4571 10.1262ZM9.04289 10.1262C9.43341 9.7357 10.0666 9.7357 10.4571 10.1262L11.8713 8.71201C10.6997 7.54044 8.80025 7.54044 7.62867 8.71201L9.04289 10.1262ZM9.04289 11.5404C8.65236 11.1499 8.65236 10.5168 9.04289 10.1262L7.62867 8.71201C6.4571 9.88359 6.4571 11.7831 7.62867 12.9547L9.04289 11.5404ZM10.5024 13L9.04289 11.5404L7.62867 12.9547L9.08824 14.4142L10.5024 13ZM13.3309 13C12.5498 13.781 11.2835 13.7811 10.5024 13L9.08823 14.4142C10.6503 15.9763 13.183 15.9763 14.7451 14.4142L13.3309 13ZM16.9571 9.37377L13.3309 13L14.7451 14.4142L18.3713 10.788L16.9571 9.37377ZM11.9167 21.75H7.04166V23.75H11.9167V21.75ZM3.33333 20.0417C3.33333 22.0897 4.99361 23.75 7.04166 23.75V21.75C6.09817 21.75 5.33333 20.9852 5.33333 20.0417H3.33333Z" fill="#222222"/>
<path d="M21.6667 22.75H10.8333" stroke="#222222" stroke-width="2" stroke-linecap="round"/>
</svg>
