<?xml version="1.0" encoding="utf-8"?>
<!-- Generator: Adobe Illustrator 25.4.1, SVG Export Plug-In . SVG Version: 6.00 Build 0)  -->
<svg version="1.1" id="Layer_1" xmlns="http://www.w3.org/2000/svg" xmlns:xlink="http://www.w3.org/1999/xlink" x="0px" y="0px"
	 viewBox="0 0 24 24" style="enable-background:new 0 0 24 24;" xml:space="preserve">
<style type="text/css">
	.st0{fill:#222222;}
</style>
<g>
	<path class="st0" d="M2.23,7.15c1.62,0,3.23,0,4.85,0c0,3.24,0,6.48,0,9.72c-1.62,0-3.23,0-4.85,0C2.23,13.64,2.23,10.4,2.23,7.15z
		"/>
	<path class="st0" d="M13.17,16.87c-1.62,0-3.24,0-4.86,0c0-3.24,0-6.48,0-9.72c1.62,0,3.23,0,4.86,0
		C13.17,10.39,13.17,13.63,13.17,16.87z"/>
	<path class="st0" d="M20.7,16.08c-0.56,0.15-1.11,0.3-1.65,0.45c-0.97,0.26-1.95,0.52-2.92,0.79c-0.05,0.01-0.07,0.01-0.08-0.05
		c-0.46-1.7-0.92-3.39-1.37-5.09c-0.09-0.33-0.18-0.67-0.27-1c-0.01-0.03-0.01-0.06-0.01-0.09c0-1.1,0-2.2,0-3.31
		c0-0.05,0.01-0.07,0.06-0.09c1.24-0.33,2.49-0.67,3.74-1.01C19.03,9.82,19.86,12.95,20.7,16.08z"/>
	<path class="st0" d="M2.23,18.1c1.62,0,3.24,0,4.86,0c0,0.03,0,0.05,0,0.08c0,0.77,0,1.54,0,2.31c0,0.26-0.04,0.51-0.19,0.73
		c-0.2,0.29-0.46,0.46-0.81,0.51c-0.07,0.01-0.14,0.02-0.21,0.02c-0.84,0-1.67,0-2.51,0c-0.53,0-0.97-0.35-1.1-0.86
		c-0.03-0.11-0.04-0.22-0.04-0.34c0-0.8,0-1.59,0-2.39C2.22,18.13,2.23,18.12,2.23,18.1z"/>
	<path class="st0" d="M13.17,18.1c0,0.03,0,0.05,0,0.08c0,0.77,0,1.54,0,2.3c0,0.26-0.04,0.5-0.18,0.72
		c-0.19,0.3-0.47,0.47-0.82,0.52c-0.07,0.01-0.14,0.02-0.21,0.02c-0.83,0-1.66,0-2.49,0c-0.54,0-0.97-0.34-1.11-0.86
		c-0.03-0.11-0.04-0.23-0.04-0.34c0-0.8,0-1.59,0-2.39c0-0.01,0-0.03,0-0.05C9.93,18.1,11.55,18.1,13.17,18.1z"/>
	<path class="st0" d="M7.08,5.92c-1.62,0-3.24,0-4.86,0c0-0.03,0-0.05,0-0.07c0-0.78,0-1.56,0-2.34c0-0.26,0.06-0.51,0.21-0.72
		c0.18-0.26,0.43-0.43,0.74-0.48c0.1-0.02,0.2-0.03,0.3-0.03c0.79,0,1.58,0,2.37,0c0.27,0,0.54,0.05,0.76,0.22
		C6.9,2.72,7.08,3.01,7.08,3.38c0.01,0.83,0.01,1.66,0.01,2.49C7.09,5.89,7.09,5.9,7.08,5.92z"/>
	<path class="st0" d="M8.31,5.92c0-0.03,0-0.05,0-0.07c0-0.78,0-1.55,0-2.33c0-0.25,0.05-0.49,0.19-0.7
		c0.18-0.28,0.44-0.45,0.76-0.51c0.1-0.02,0.2-0.03,0.3-0.03c0.79,0,1.57,0,2.36,0c0.33,0,0.62,0.08,0.87,0.31
		c0.2,0.18,0.32,0.41,0.36,0.67c0.01,0.09,0.02,0.18,0.02,0.28c0,0.77,0,1.54,0,2.32c0,0.02,0,0.04,0,0.07
		C11.55,5.92,9.93,5.92,8.31,5.92z"/>
	<path class="st0" d="M16.37,18.51c1.56-0.42,3.11-0.84,4.67-1.26c0.07,0.25,0.13,0.5,0.2,0.75c0.13,0.5,0.26,1.01,0.4,1.51
		c0.09,0.32,0.07,0.64-0.09,0.94c-0.11,0.21-0.29,0.37-0.5,0.49c-0.22,0.12-0.46,0.17-0.7,0.23c-0.61,0.17-1.23,0.34-1.85,0.51
		c-0.29,0.08-0.59,0.07-0.87-0.06c-0.3-0.14-0.5-0.37-0.61-0.67c-0.1-0.29-0.17-0.6-0.25-0.89C16.64,19.55,16.5,19.04,16.37,18.51z"
		/>
	<path class="st0" d="M14.39,2.7c0.22-0.06,0.44-0.12,0.66-0.18c0.28-0.07,0.56-0.17,0.85-0.22c0.43-0.08,0.8,0.04,1.09,0.37
		c0.18,0.2,0.27,0.45,0.34,0.71c0.18,0.7,0.37,1.4,0.55,2.1c0,0.01,0,0.01,0,0.03c-1.16,0.32-2.32,0.63-3.49,0.95
		C14.39,5.2,14.39,3.95,14.39,2.7z"/>
</g>
</svg>
