<?xml version="1.0" encoding="UTF-8"?>
<svg enable-background="new 0 0 100 160" version="1.1" viewBox="0 0 100 160" xml:space="preserve" xmlns="http://www.w3.org/2000/svg">
<style type="text/css">
	.st0{fill:#E4D3BB;}
</style>
<rect class="st0" width="100" height="160"/>
		<path d="m20.5 62.1v6.4 1.2s0 0.8 0 1.2c0.2-0.2 0.3-0.4 0.5-0.6s0.3-0.4 0.5-0.6l3.5-3.9h1l-3.5 3.8 3.8 5.1h-1l-3.4-4.5-1.4 1.5v3h-0.8v-12.6h0.8z"/>
		<path d="m31.2 65.7c0.8 0 1.4 0.2 1.9 0.5 0.5 0.4 0.9 0.8 1.1 1.5 0.3 0.6 0.4 1.3 0.4 2.1v0.6h-6.4c0 1.2 0.3 2.2 0.9 2.8 0.6 0.7 1.4 1 2.4 1 0.6 0 1 0 1.4-0.1s0.9-0.2 1.4-0.5v0.8c-0.4 0.2-0.9 0.3-1.3 0.4-0.5 0.2-1 0.2-1.6 0.2-0.9 0-1.7-0.2-2.3-0.6s-1.1-0.9-1.4-1.6-0.5-1.5-0.5-2.4 0.1-1.7 0.4-2.4 0.7-1.3 1.3-1.7 1.4-0.6 2.3-0.6zm0 0.8c-0.9 0-1.5 0.3-2.1 0.9-0.5 0.6-0.8 1.4-0.9 2.5h5.6c0-0.7-0.1-1.2-0.3-1.7s-0.5-0.9-0.8-1.2c-0.5-0.4-0.9-0.5-1.5-0.5z"/>
		<path d="m37.5 62.6c0.2 0 0.4 0.1 0.5 0.2s0.1 0.3 0.1 0.5 0 0.4-0.1 0.5-0.3 0.2-0.5 0.2-0.3-0.1-0.4-0.2-0.1-0.3-0.1-0.5 0-0.4 0.1-0.5c0-0.1 0.2-0.2 0.4-0.2zm0.4 3.3v8.9h-0.9v-8.9h0.9z"/>
		<path d="m44.8 65.7c1 0 1.8 0.3 2.3 0.8s0.8 1.3 0.8 2.5v5.8h-0.8v-5.8c0-0.9-0.2-1.5-0.6-2-0.4-0.4-1-0.6-1.8-0.6-1 0-1.7 0.3-2.2 0.9s-0.8 1.4-0.8 2.6v4.9h-0.8v-8.9h0.7l0.1 1.6c0.2-0.3 0.4-0.6 0.7-0.9s0.6-0.5 1-0.6c0.4-0.2 0.8-0.3 1.4-0.3z"/>
		<path d="m55.3 62.8h3.3c1.5 0 2.6 0.2 3.3 0.7s1 1.2 1 2.2c0 0.5-0.1 0.9-0.3 1.3s-0.4 0.7-0.8 0.9-0.8 0.4-1.3 0.5v0.1c0.6 0.1 1.1 0.3 1.5 0.5s0.7 0.6 0.9 1 0.3 0.9 0.3 1.4c0 0.8-0.2 1.4-0.5 1.9-0.4 0.5-0.9 0.9-1.5 1.1s-1.4 0.4-2.2 0.4h-3.7v-12zm0.9 5.4h2.7c1.1 0 1.9-0.2 2.4-0.6s0.8-1 0.8-1.7c0-0.8-0.3-1.4-0.8-1.7s-1.4-0.5-2.6-0.5h-2.4v4.5zm0 0.7v5.2h2.8c1.1 0 1.9-0.2 2.5-0.7 0.6-0.4 0.9-1.1 0.9-2 0-0.6-0.1-1.1-0.4-1.4-0.3-0.4-0.7-0.6-1.2-0.8s-1.2-0.3-2-0.3h-2.6z"/>
		<path d="m66.1 62.6c0.2 0 0.4 0.1 0.5 0.2s0.1 0.3 0.1 0.5 0 0.4-0.1 0.5-0.3 0.2-0.5 0.2-0.3-0.1-0.4-0.2-0.1-0.3-0.1-0.5 0-0.4 0.1-0.5 0.2-0.2 0.4-0.2zm0.4 3.3v8.9h-0.8v-8.9h0.8z"/>
		<path d="M70.3,74.8h-0.8V62.1h0.8V74.8z"/>
		<path d="m76.5 75c-1.2 0-2.2-0.4-2.8-1.2s-1-1.9-1-3.4 0.3-2.7 1-3.5 1.6-1.2 2.8-1.2c0.5 0 1 0.1 1.3 0.2 0.4 0.2 0.7 0.4 1 0.6 0.3 0.3 0.5 0.6 0.6 0.9h0.1v-0.9-0.9-3.6h0.8v12.8h-0.7l-0.1-1.6c-0.1 0.3-0.4 0.6-0.6 0.9-0.3 0.3-0.6 0.5-1 0.7-0.4 0.1-0.8 0.2-1.4 0.2zm0.1-0.7c1.1 0 1.8-0.3 2.2-1s0.7-1.6 0.7-2.8v-0.1c0-1.3-0.2-2.2-0.7-2.9-0.4-0.7-1.2-1-2.2-1s-1.7 0.3-2.3 1-0.8 1.7-0.8 3c0 1.2 0.2 2.2 0.7 2.8 0.6 0.7 1.4 1 2.4 1z"/>
		<path d="m17.1 95-3.4-8.9h0.9l2.3 6.1c0.1 0.4 0.3 0.7 0.4 1.1s0.2 0.6 0.3 0.9l0.3-0.9c0.1-0.3 0.2-0.7 0.4-1.1l2.3-6.1h0.9l-3.6 8.9h-0.8z"/>
		<path d="m26.2 85.9c0.8 0 1.4 0.2 1.9 0.5 0.5 0.4 0.9 0.8 1.1 1.5 0.3 0.6 0.4 1.3 0.4 2.1v0.6h-6.4c0 1.2 0.3 2.2 0.9 2.8 0.6 0.7 1.4 1 2.4 1 0.6 0 1 0 1.4-0.1s0.9-0.2 1.4-0.5v0.8c-0.5 0.2-0.9 0.4-1.3 0.4-0.4 0.1-0.9 0.1-1.5 0.1-0.9 0-1.7-0.2-2.3-0.6s-1.1-0.9-1.4-1.6-0.5-1.5-0.5-2.4 0.1-1.7 0.4-2.4 0.7-1.3 1.3-1.7c0.7-0.3 1.4-0.5 2.2-0.5zm0 0.7c-0.9 0-1.5 0.3-2.1 0.9-0.5 0.6-0.8 1.4-0.9 2.5h5.6c0-0.7-0.1-1.2-0.3-1.7s-0.5-0.9-0.8-1.2c-0.4-0.3-0.9-0.5-1.5-0.5z"/>
		<path d="m35.6 85.9h0.7s0.4 0.1 0.6 0.1l-0.1 0.8c-0.2 0-0.4-0.1-0.5-0.1h-0.6c-0.4 0-0.8 0.1-1.1 0.2-0.3 0.2-0.6 0.4-0.8 0.7s-0.4 0.7-0.5 1.1-0.2 0.9-0.2 1.4v4.9h-0.8v-8.9h0.7l0.1 1.7c0.1-0.3 0.3-0.7 0.6-0.9 0.2-0.3 0.5-0.5 0.9-0.7 0.2-0.2 0.6-0.3 1-0.3z"/>
		<path d="m42 86.8h-2.1v8.2h-0.9v-8.2h-1.7v-0.5l1.7-0.2v-1c0-0.7 0.1-1.2 0.3-1.6s0.5-0.8 0.9-1 0.9-0.3 1.5-0.3c0.3 0 0.6 0 0.8 0.1 0.2 0 0.5 0.1 0.7 0.2l-0.2 0.6c-0.2-0.1-0.4-0.1-0.6-0.2-0.2 0-0.5-0.1-0.7-0.1-0.6 0-1.1 0.2-1.4 0.5-0.3 0.4-0.4 0.9-0.4 1.7v1h2.1v0.8z"/>
		<path d="m50.6 86.1v8.9h-0.6l-0.1-1.6-0.6 0.9c-0.3 0.3-0.6 0.5-1 0.6-0.4 0.2-0.9 0.2-1.4 0.2-0.7 0-1.3-0.1-1.7-0.4-0.5-0.2-0.8-0.6-1-1.1s-0.4-1.1-0.4-1.8v-5.8h0.8v5.8c0 0.9 0.2 1.5 0.6 2 0.4 0.4 1 0.6 1.8 0.6 0.7 0 1.2-0.1 1.7-0.4 0.4-0.3 0.8-0.6 1-1.1s0.4-1.2 0.4-1.9v-4.9h0.5zm-5.5-2.5c0-0.2 0-0.3 0.1-0.5 0.1-0.1 0.2-0.2 0.4-0.2s0.3 0.1 0.4 0.2 0.1 0.3 0.1 0.5 0 0.4-0.1 0.5-0.2 0.2-0.4 0.2-0.3-0.1-0.4-0.2-0.1-0.3-0.1-0.5zm3.1 0c0-0.2 0-0.3 0.1-0.5 0.1-0.1 0.2-0.2 0.4-0.2s0.3 0.1 0.4 0.2 0.1 0.3 0.1 0.5 0 0.4-0.1 0.5-0.2 0.2-0.4 0.2-0.3-0.1-0.4-0.2-0.1-0.3-0.1-0.5z"/>
		<path d="m56 99.1c-1.1 0-2-0.2-2.6-0.6s-0.9-1-0.9-1.8c0-0.6 0.2-1.1 0.6-1.6 0.4-0.4 0.9-0.7 1.5-0.8-0.3-0.1-0.5-0.3-0.6-0.5-0.2-0.2-0.2-0.4-0.2-0.7s0.1-0.6 0.3-0.9 0.5-0.5 0.9-0.7c-0.5-0.2-0.9-0.5-1.2-0.9s-0.4-1-0.4-1.6 0.1-1.1 0.4-1.6 0.6-0.8 1.1-1 1-0.4 1.7-0.4h0.5 0.4c0.1 0 0.3 0.1 0.4 0.1h2.9v0.6l-1.8 0.1c0.2 0.3 0.4 0.6 0.5 0.9s0.2 0.7 0.2 1.1c0 0.9-0.3 1.6-0.8 2.1-0.6 0.5-1.3 0.8-2.3 0.8-0.3 0-0.5 0-0.8-0.1-0.3 0.2-0.6 0.4-0.8 0.6s-0.3 0.4-0.3 0.7c0 0.2 0.1 0.3 0.2 0.5 0.1 0.1 0.3 0.2 0.5 0.3s0.5 0.1 0.8 0.1h1.6c1 0 1.7 0.2 2.2 0.6s0.8 1 0.8 1.7c0 0.9-0.4 1.7-1.2 2.2-1.1 0.5-2.2 0.8-3.6 0.8zm0-0.7c0.8 0 1.4-0.1 2-0.3 0.5-0.2 0.9-0.4 1.2-0.8 0.3-0.3 0.4-0.7 0.4-1.2 0-0.4-0.1-0.7-0.3-0.9s-0.5-0.4-0.8-0.5-0.8-0.1-1.2-0.1h-1.5c-0.5 0-0.9 0.1-1.3 0.2s-0.7 0.3-0.9 0.6-0.3 0.7-0.3 1.1c0 0.6 0.2 1 0.7 1.4 0.5 0.3 1.1 0.5 2 0.5zm0.3-7.4c0.7 0 1.3-0.2 1.7-0.6s0.6-0.9 0.6-1.6c0-0.8-0.2-1.3-0.6-1.7s-1-0.6-1.7-0.6-1.3 0.2-1.7 0.6-0.6 1-0.6 1.7 0.2 1.2 0.6 1.6 0.9 0.6 1.7 0.6z"/>
		<path d="m63.2 82.2v3.6 1 0.9c0.2-0.6 0.6-1 1.1-1.4s1.2-0.5 2-0.5c1.2 0 2.1 0.4 2.7 1.2s0.9 1.9 0.9 3.4c0 0.9-0.1 1.7-0.4 2.4s-0.7 1.2-1.3 1.6-1.3 0.6-2.1 0.6-1.4-0.2-1.9-0.5-0.8-0.7-1.1-1.2h-0.1v1.7h-0.6v-12.8h0.8zm3 4.4c-0.7 0-1.3 0.2-1.7 0.5s-0.8 0.7-1 1.3-0.3 1.3-0.3 2.1v0.1c0 1.2 0.2 2.2 0.7 2.8 0.4 0.6 1.2 1 2.2 1s1.7-0.3 2.3-1c0.5-0.7 0.8-1.7 0.8-2.9 0-1.3-0.2-2.3-0.7-2.9-0.6-0.6-1.4-1-2.3-1z"/>
		<path d="m75.5 85.9c1 0 1.7 0.2 2.2 0.7s0.7 1.3 0.7 2.4v6h-0.6l-0.1-1.6c-0.2 0.3-0.4 0.6-0.7 0.9s-0.6 0.5-1 0.6-0.9 0.2-1.4 0.2c-0.6 0-1.1-0.1-1.5-0.3s-0.7-0.5-0.9-0.8c-0.2-0.4-0.3-0.8-0.3-1.3 0-0.9 0.4-1.6 1.1-2 0.7-0.5 1.8-0.7 3.2-0.8l1.7-0.1v-0.6c0-0.9-0.2-1.6-0.5-2-0.4-0.4-0.9-0.6-1.6-0.6-0.5 0-0.9 0.1-1.3 0.2s-0.9 0.3-1.3 0.5l-0.3-0.7c0.4-0.2 0.9-0.4 1.4-0.5 0.1-0.1 0.6-0.2 1.2-0.2zm2.1 4.6h-1.6c-1.1 0.1-2 0.3-2.6 0.6-0.6 0.4-0.9 0.9-0.9 1.6 0 0.6 0.2 1 0.5 1.3 0.4 0.3 0.8 0.4 1.5 0.4 1 0 1.7-0.3 2.2-0.8 0.5-0.6 0.8-1.3 0.8-2.3l0.1-0.8z"/>
		<path d="m84.8 85.9h0.7s0.4 0.1 0.6 0.1l-0.1 0.8c-0.2 0-0.4-0.1-0.5-0.1h-0.6c-0.4 0-0.8 0.1-1.1 0.2-0.3 0.2-0.6 0.4-0.8 0.7s-0.4 0.7-0.5 1.1-0.2 0.9-0.2 1.4v4.9h-0.9v-8.9h0.6l0.1 1.7c0.1-0.3 0.3-0.7 0.6-0.9 0.2-0.3 0.5-0.5 0.9-0.7s0.8-0.3 1.2-0.3z"/>
</svg>
